<?xml version="1.0" encoding="UTF-8"?>
<!DOCTYPE svg PUBLIC "-//W3C//DTD SVG 1.1//EN" "http://www.w3.org/Graphics/SVG/1.1/DTD/svg11.dtd">
<svg version="1.1" xmlns="http://www.w3.org/2000/svg" xmlns:xlink="http://www.w3.org/1999/xlink" x="0" y="0" width="288" height="158.4" viewBox="0, 0, 144, 79.2">
  <g id="Layer_2">
    <g>
      <g>
        <path d="M30.152,54.42 C30.152,54.42 32.497,58.318 33.959,59.842 C35.421,61.365 37.219,63.009 38.711,63.619 C40.204,64.228 41.087,63.862 41.209,63.558 C41.331,63.253 40.843,62.796 40.173,61.456 C39.503,60.116 40.173,58.684 39.046,57.587 C37.919,56.491 35.635,55.76 35.635,55.76 C35.635,55.76 34.355,54.572 33.076,54.298 C31.797,54.024 30.06,54.48 30.152,54.42 z" fill="#6B7F90"/>
        <path d="M112.525,39.149 C112.525,39.149 114.168,39.58 116.703,37.85 C119.237,36.12 123.136,31.149 125.67,27.834 C128.205,24.52 131.714,21.109 135.125,18.964 C138.537,16.82 142.436,16.82 142.533,17.6 C142.631,18.379 139.512,18.124 133.468,27.122 C127.425,36.12 126.645,40.896 126.645,40.896 C126.645,40.896 129.959,49.084 134.54,56.687 C139.122,64.29 143.8,65.362 143.995,66.532 C144.19,67.701 138.147,68.968 132.396,63.218 C126.645,57.467 124.013,53.275 121.479,48.986 C118.945,44.697 116.02,42.994 116.02,42.994 C116.02,42.994 112.525,42.163 112.525,42.163 C112.525,42.163 110.757,40.604 110.757,40.604 C110.757,40.604 112.525,39.149 112.525,39.149 z" fill="#DCE1E5"/>
        <g>
          <path d="M79.368,51.614 C79.368,51.614 80.305,52.103 81.148,52.218 C82.001,52.334 82.891,52.474 83.1,52.282 C83.309,52.09 83.005,51.755 83.015,51.213 C83.026,50.644 83.142,50.059 83.142,50.059 C83.142,50.059 80.929,50.563 80.929,50.563 C80.929,50.563 79.309,51.696 79.368,51.614 z" fill="#BAC9D6"/>
          <path d="M83.15,50.354 C83.15,50.354 84.071,50.867 84.909,51.004 C85.758,51.142 86.642,51.305 86.857,51.119 C87.073,50.932 86.78,50.59 86.809,50.048 C86.839,49.48 86.975,48.898 86.975,48.898 C86.975,48.898 84.746,49.343 84.746,49.343 C84.746,49.343 83.089,50.434 83.15,50.354 z" fill="#BAC9D6"/>
          <path d="M86.975,48.83 C86.975,48.83 87.913,49.319 88.756,49.434 C89.609,49.55 90.498,49.69 90.707,49.498 C90.916,49.306 90.612,48.971 90.623,48.429 C90.634,47.86 90.75,47.275 90.75,47.275 C90.75,47.275 88.537,47.779 88.537,47.779 C88.537,47.779 86.916,48.912 86.975,48.83 z" fill="#BAC9D6"/>
          <path d="M90.455,47.643 C90.455,47.643 91.383,48.146 92.223,48.273 C93.074,48.401 93.96,48.555 94.173,48.366 C94.386,48.177 94.088,47.837 94.109,47.295 C94.131,46.727 94.258,46.143 94.258,46.143 C94.258,46.143 92.036,46.615 92.036,46.615 C92.036,46.615 90.394,47.724 90.455,47.643 z" fill="#BAC9D6"/>
          <path d="M93.855,46.456 C93.855,46.456 94.83,46.92 95.695,47.013 C96.572,47.106 97.486,47.224 97.694,47.026 C97.901,46.829 97.58,46.502 97.574,45.96 C97.567,45.391 97.667,44.803 97.667,44.803 C97.667,44.803 95.419,45.364 95.419,45.364 C95.419,45.364 93.797,46.539 93.855,46.456 z" fill="#BAC9D6"/>
          <path d="M97.112,45.33 C97.112,45.33 98.018,45.862 98.853,46.016 C99.697,46.171 100.576,46.353 100.797,46.171 C101.017,45.989 100.734,45.64 100.777,45.099 C100.822,44.531 100.973,43.952 100.973,43.952 C100.973,43.952 98.734,44.352 98.734,44.352 C98.734,44.352 97.048,45.409 97.112,45.33 z" fill="#BAC9D6"/>
          <path d="M100.38,44.058 C100.38,44.058 101.278,44.687 102.171,44.932 C103.075,45.181 104.012,45.459 104.292,45.304 C104.572,45.148 104.328,44.771 104.482,44.24 C104.645,43.683 104.927,43.126 104.927,43.126 C104.927,43.126 102.369,43.271 102.369,43.271 C102.369,43.271 100.294,44.129 100.38,44.058 z" fill="#BAC9D6"/>
          <path d="M104.907,43.201 C104.907,43.201 105.611,43.901 106.397,44.211 C107.192,44.525 108.011,44.871 108.31,44.732 C108.608,44.592 108.463,44.192 108.729,43.662 C109.007,43.105 109.398,42.558 109.398,42.558 C109.398,42.558 106.957,42.534 106.957,42.534 C106.957,42.534 104.81,43.267 104.907,43.201 z" fill="#BAC9D6"/>
        </g>
        <path d="M88.575,70.267 C88.575,70.364 83.702,67.928 79.705,63.346 C75.709,58.765 76.482,57.973 76.848,56.084 C77.261,54.493 78.196,53.083 79.102,51.731 C74.672,53.364 62.197,52.696 65.582,55.998 C71.914,62.176 68.885,60.032 74.636,65.003 C80.387,69.975 88.575,70.17 88.575,70.267 z" fill="#6B7F90"/>
        <g>
          <path d="M86.737,8.088 C86.737,8.088 81.254,12.962 78.939,16.861 C76.624,20.76 76.38,21.065 76.746,22.953 C77.159,24.545 81.711,27.783 81.832,27.904 C81.954,28.026 77.324,27.478 72.755,25.894 C68.186,24.31 66.907,23.153 66.846,23.396 C66.785,23.64 72.197,16.658 77.111,12.962 C82.025,9.266 86.737,8.088 86.737,8.088 z" fill="#6B7F90"/>
        </g>
        <g>
          <path d="M81.995,28.031 C81.995,28.031 82.921,27.451 83.761,27.3 C84.612,27.146 85.498,26.964 85.711,27.178 C85.924,27.391 85.628,27.78 85.65,28.396 C85.673,29.043 85.802,29.706 85.802,29.706 C85.802,29.706 83.578,29.188 83.578,29.188 C83.578,29.188 81.934,27.939 81.995,28.031 z" fill="#BAC9D6"/>
          <path d="M85.804,29.554 C85.804,29.554 86.73,28.974 87.571,28.823 C88.421,28.669 89.307,28.487 89.52,28.701 C89.733,28.914 89.437,29.303 89.459,29.919 C89.482,30.566 89.611,31.229 89.611,31.229 C89.611,31.229 87.388,30.711 87.388,30.711 C87.388,30.711 85.743,29.462 85.804,29.554 z" fill="#BAC9D6"/>
          <path d="M89.613,31.259 C89.613,31.259 90.54,30.68 91.38,30.528 C92.23,30.375 93.116,30.193 93.329,30.406 C93.542,30.62 93.246,31.008 93.268,31.625 C93.292,32.272 93.421,32.935 93.421,32.935 C93.421,32.935 91.197,32.417 91.197,32.417 C91.197,32.417 89.552,31.168 89.613,31.259 z" fill="#BAC9D6"/>
          <path d="M93.422,32.965 C93.422,32.965 94.349,32.386 95.189,32.234 C96.039,32.081 96.925,31.899 97.138,32.112 C97.352,32.326 97.055,32.714 97.078,33.331 C97.101,33.978 97.23,34.641 97.23,34.641 C97.23,34.641 95.006,34.123 95.006,34.123 C95.006,34.123 93.361,32.874 93.422,32.965 z" fill="#BAC9D6"/>
          <path d="M97.232,34.819 C97.232,34.819 98.152,34.197 99.004,34.006 C99.866,33.814 100.764,33.59 100.991,33.793 C101.219,33.997 100.934,34.399 100.985,35.013 C101.038,35.659 101.2,36.315 101.2,36.315 C101.2,36.315 98.904,35.901 98.904,35.901 C98.904,35.901 97.165,34.731 97.232,34.819 z" fill="#BAC9D6"/>
          <path d="M101.202,36.072 C101.202,36.072 102.097,35.444 102.928,35.249 C103.769,35.05 104.644,34.822 104.868,35.023 C105.092,35.225 104.817,35.629 104.872,36.243 C104.929,36.888 105.093,37.543 105.093,37.543 C105.093,37.543 102.845,37.144 102.845,37.144 C102.845,37.144 101.136,35.984 101.202,36.072 z" fill="#BAC9D6"/>
          <path d="M105.095,37.21 C105.095,37.21 105.837,36.49 106.575,36.206 C107.322,35.918 108.096,35.596 108.327,35.772 C108.558,35.948 108.356,36.378 108.484,36.982 C108.618,37.615 108.851,38.247 108.851,38.247 C108.851,38.247 106.738,38.095 106.738,38.095 C106.738,38.095 105.024,37.13 105.095,37.21 z" fill="#BAC9D6"/>
          <path d="M108.853,38.662 C108.853,38.662 109.386,37.822 110.006,37.419 C110.633,37.012 111.278,36.567 111.528,36.707 C111.777,36.846 111.681,37.31 111.924,37.896 C112.179,38.51 112.525,39.107 112.525,39.107 C112.525,39.107 110.549,39.289 110.549,39.289 C110.549,39.289 108.771,38.592 108.853,38.662 z" fill="#BAC9D6"/>
        </g>
        <path d="M45.523,12.89 C45.523,12.89 45.732,13.846 45.886,14.038 C46.04,14.229 46.981,14.423 46.981,14.423 C46.981,14.423 46.854,14.942 46.98,15.092 C47.106,15.242 47.682,15.356 47.682,15.356 C47.682,15.356 47.61,15.984 47.708,16.121 C47.806,16.259 48.439,16.362 48.439,16.362 C48.439,16.362 48.332,17.067 48.521,17.247 C48.71,17.426 49.279,17.583 49.279,17.583 C49.279,17.583 49.25,18.264 49.39,18.42 C49.53,18.575 50.092,18.756 50.092,18.756 C50.092,18.756 50.196,19.407 50.287,19.521 C50.378,19.635 50.589,19.773 50.708,19.785 C50.827,19.797 51.495,19.715 51.495,19.715 C51.495,19.715 51.874,20.224 52.084,20.242 C52.295,20.261 53.041,19.862 53.041,19.862 C53.041,19.862 53.532,20.389 53.714,20.365 C53.897,20.342 54.643,20.009 54.643,20.009 C54.643,20.009 55.203,20.655 55.428,20.68 C55.653,20.704 56.188,20.251 56.188,20.251 C56.188,20.251 56.51,20.64 56.721,20.682 C56.932,20.725 57.958,20.446 57.958,20.446 C57.958,20.446 58.147,20.877 58.351,20.949 C58.554,21.021 59.391,20.951 59.391,20.951 C59.391,20.951 59.994,21.532 60.233,21.55 C60.472,21.569 61.189,21.409 61.189,21.409 C61.189,21.409 61.511,21.87 61.75,21.96 C61.988,22.05 62.846,22.074 62.846,22.074 C63.092,22.403 63.339,22.731 63.586,23.06 C59.923,22.408 56.185,22.148 52.451,22.055 C46.735,21.951 41.048,22.434 35.399,23.119 C36.367,21.228 37.764,19.523 39.239,17.896 C42.428,14.461 45.523,12.89 45.523,12.89 z" fill="#6B7F90"/>
      </g>
      <path d="M103.179,83.235 C103.179,83.235 103.179,83.235 103.179,83.235" fill="#0080FF"/>
      <g>
        <path d="M69.276,23.427 C73.729,24.528 78.115,25.917 82.402,27.543 L82.402,27.543 L83.692,28.032 C93.629,31.887 97.978,35.048 105.17,36.834 C112.363,38.62 117.787,39.543 117.976,40.389 C118.165,41.236 116.721,41.572 112.84,42.136 C108.96,42.7 100.821,44.111 92.683,46.837 C84.544,49.564 83.03,52.103 64.859,56.052 C46.689,60.001 28.992,54.453 18.676,51.163 C8.36,47.872 -1.387,43.264 0.316,41.948 C2.02,40.632 7.225,41.29 7.225,41.29 C7.225,41.29 0.127,37.153 0.222,36.024 C0.316,34.896 12.146,28.596 20.379,25.493 C28.613,22.391 40.727,20.792 51.326,20.886 C57.408,20.889 63.383,22.049 69.276,23.427" fill="#1F2532"/>
        <path d="M64.175,34.291 C64.175,34.291 99.191,38.052 99.191,38.052 C103.029,38.082 106.867,38.112 110.705,38.141 C112.634,38.616 114.598,38.976 116.498,39.564 C116.974,39.712 117.84,39.918 118.14,40.408 C118.329,41.255 116.721,41.631 112.84,42.195 C108.96,42.759 100.821,44.169 92.683,46.896 C84.544,49.623 83.03,52.161 64.859,56.111 C46.689,60.06 28.992,54.512 18.676,51.221 C8.36,47.93 -1.387,43.323 0.316,42.007 C2.02,40.69 7.225,41.349 7.225,41.349 C5.315,40.154 3.301,39.063 1.572,37.609 C10.492,36.781 19.411,35.94 28.331,35.113 C28.331,35.113 64.175,34.291 64.175,34.291 z" fill="#DCE1E5"/>
        <path d="M60.97,29.882 C60.97,29.882 69.226,30.708 69.226,30.708 C69.226,30.708 72.54,31.06 72.54,31.06 C72.54,31.06 77.793,31.413 77.793,31.413 C77.793,31.413 81.358,32.588 81.358,32.588 C81.358,32.588 85.069,33.293 85.069,33.293 C85.069,33.293 86.737,33.117 86.737,33.117 C86.737,33.117 87.299,33.705 87.299,33.705 C87.299,33.705 89.238,33.998 89.238,33.998 C89.238,33.998 91.114,34.527 91.114,34.527 C91.114,34.527 92.865,35.233 92.865,35.233 C92.865,35.233 95.179,35.291 95.179,35.291 C95.179,35.291 96.868,36.114 96.868,36.114 C96.868,36.114 98.932,36.173 98.932,36.173 C98.932,36.173 101.183,36.878 101.183,36.878 C101.183,36.878 104.373,37.583 104.373,37.583 C104.373,37.583 106.937,37.759 106.937,37.759 C106.937,37.759 110.564,38.523 110.564,38.523 C110.564,38.523 113.129,39.111 113.129,39.111 C113.129,39.111 115.192,39.364 115.192,39.364 C115.192,39.364 113.12,39.111 113.12,39.111 C113.12,39.111 108.883,39.364 108.883,39.364 L103.605,39.364 C103.605,39.364 97.825,40.148 97.825,40.148 C97.825,40.148 91.039,39.364 91.039,39.364 C91.039,39.364 84.38,38.737 84.38,38.737 C84.38,38.737 77.656,37.915 77.656,37.915 C77.656,37.915 72.442,38.737 72.442,38.737 C72.442,38.737 67.667,37.327 67.667,37.327 C67.667,37.327 60.253,36.739 60.253,36.739 C60.253,36.739 56.358,37.092 56.358,37.092 C56.358,37.092 52.84,38.385 52.84,38.385 C52.84,38.385 48.442,37.562 48.442,37.562 C48.442,37.562 41.906,38.267 41.906,38.267 C41.906,38.267 35.625,38.561 35.625,38.561 C35.625,38.561 33.111,37.68 33.111,37.68 C33.111,37.68 30.975,38.209 30.975,38.209 C30.975,38.209 27.897,39.364 27.897,39.364 C27.897,39.364 24.881,37.973 24.881,37.973 C24.881,37.973 21.614,38.444 21.614,38.444 C21.614,38.444 17.781,39.619 17.781,39.619 C17.781,39.619 14.64,39.678 14.64,39.678 C14.64,39.678 11.31,39.09 11.31,39.09 C11.31,39.09 8.357,37.973 8.357,37.973 C8.357,37.973 5.404,38.15 5.404,38.15 C4.303,38.112 3.201,38.075 2.099,38.037 C1.371,37.478 0.527,37.003 0.186,36.111 C0.602,35.994 1.017,35.878 1.433,35.761 C1.433,35.761 4.81,35.468 4.81,35.468 C4.81,35.468 5.811,34.821 5.811,34.821 C5.811,34.821 9.063,34.704 9.063,34.704 C9.063,34.704 11.752,33.998 11.752,33.998 C11.752,33.998 13.065,33.234 13.065,33.234 C13.065,33.234 15.192,33.411 15.192,33.411 C15.192,33.411 18.293,32.647 18.293,32.647 C18.293,32.647 20.07,32.941 20.07,32.941 C20.07,32.941 22.008,32.118 22.008,32.118 C22.008,32.118 24.635,32.118 24.635,32.118 C24.635,32.118 26.386,31.354 26.386,31.354 C26.386,31.354 28.825,31.178 28.825,31.178 C28.825,31.178 31.264,31.178 31.264,31.178 C31.264,31.178 32.828,30.649 32.828,30.649 C32.828,30.649 36.08,30.766 36.08,30.766 C36.08,30.766 39.769,30.708 39.769,30.708 C39.769,30.708 42.959,29.882 42.959,29.882 L60.97,29.882 z" fill="#ADD0F3"/>
        <path d="M6.746,41.078 C10.859,42.401 14.994,43.655 19.137,44.88 C27.655,47.388 30.651,48.015 39.169,49.425 C47.686,50.835 50.21,51.149 57.15,51.462 C64.09,51.776 69.735,50.835 76.376,50.365 C79.3,50.16 82.227,49.982 85.154,49.825 C78.65,52.779 71.692,54.514 64.738,56.052 C46.567,60.001 28.87,54.453 18.554,51.163 C8.239,47.872 -1.509,43.264 0.195,41.948 C1.898,40.632 7.103,41.29 7.103,41.29 C6.984,41.22 6.865,41.149 6.746,41.078 z" fill="#BAC9D6"/>
      </g>
      <g>
        <path d="M13.3,37.782 C11.819,37.782 10.619,36.537 10.619,35.002 C10.619,33.467 11.819,32.222 13.3,32.222 C14.78,32.222 15.98,33.467 15.98,35.002 C15.98,36.537 14.78,37.782 13.3,37.782 z" fill="#FCF3E8"/>
        <path d="M13.3,36.374 C12.569,36.374 11.977,35.76 11.977,35.002 C11.977,34.244 12.569,33.63 13.3,33.63 C14.03,33.63 14.622,34.244 14.622,35.002 C14.622,35.76 14.03,36.374 13.3,36.374 z" fill="#405058"/>
        <path d="M13.125,35.417 C12.722,35.417 12.394,35.062 12.394,34.623 C12.394,34.184 12.722,33.829 13.125,33.829 C13.529,33.829 13.857,34.184 13.857,34.623 C13.857,35.062 13.529,35.417 13.125,35.417 z" fill="#FDFDFD"/>
      </g>
      <path d="M35.066,41.095 C34.789,38.982 41.164,37.428 52.97,37.066 C64.776,36.704 67.199,36.536 72.952,36.88 C78.705,37.223 97.067,38.577 96.895,39.346 C96.723,40.114 84.875,39.037 78.935,39.398 C72.996,39.759 71.011,40.761 66.969,41.408 C62.926,42.055 54.183,44.318 48.852,44.157 C43.521,43.995 35.342,43.208 35.066,41.095 z" fill="#6B7F90"/>
      <path d="M17.347,50.414 C17.347,50.414 24.279,51.103 29.089,46.555 C33.899,42.007 28.433,30.363 28.433,30.363 C28.433,30.363 35.102,39.915 30.838,46.646 C26.575,53.378 20.992,51.337 20.992,51.337 C20.992,51.337 17.347,50.414 17.347,50.414 z" fill="#6B7F90"/>
    </g>
  </g>
</svg>
