<?xml version="1.0" encoding="UTF-8"?>
<!DOCTYPE svg PUBLIC "-//W3C//DTD SVG 1.1//EN" "http://www.w3.org/Graphics/SVG/1.1/DTD/svg11.dtd">
<svg version="1.1" xmlns="http://www.w3.org/2000/svg" xmlns:xlink="http://www.w3.org/1999/xlink" x="0" y="0" width="288" height="158.4" viewBox="0, 0, 144, 79.2">
  <defs>
    <linearGradient id="Gradient_1" gradientUnits="userSpaceOnUse" x1="77.244" y1="5.894" x2="73.702" y2="25.921">
      <stop offset="0" stop-color="#F2C865"/>
      <stop offset="1" stop-color="#5D6168"/>
    </linearGradient>
    <linearGradient id="Gradient_2" gradientUnits="userSpaceOnUse" x1="42.821" y1="22.763" x2="47.844" y2="11.909" gradientTransform="matrix(0.999, -0.048, 0.048, 0.999, 0, 0)">
      <stop offset="0" stop-color="#5D6168"/>
      <stop offset="1" stop-color="#F2C865"/>
    </linearGradient>
  </defs>
  <g id="Layer_2">
    <path d="M105.984,0 C105.984,0 105.984,0 105.984,0" fill="#0080FF"/>
    <g>
      <path d="M27.265,53.331 C27.265,53.331 29.67,57.329 31.169,58.89 C32.669,60.452 34.511,62.138 36.042,62.763 C37.572,63.388 38.478,63.013 38.603,62.701 C38.728,62.388 38.228,61.92 37.541,60.546 C36.854,59.171 37.541,57.703 36.385,56.579 C35.23,55.455 32.887,54.705 32.887,54.705 C32.887,54.705 31.576,53.487 30.264,53.206 C28.952,52.925 27.172,53.393 27.265,53.331 z" fill="#F2D9A1"/>
      <path d="M111.727,37.63 C111.727,37.63 113.412,38.073 116.011,36.298 C118.609,34.524 122.607,29.427 125.206,26.029 C127.804,22.631 131.402,19.133 134.9,16.934 C138.398,14.735 142.396,14.735 142.496,15.535 C142.596,16.334 139.398,16.072 133.201,25.298 C127.005,34.524 126.205,39.422 126.205,39.422 C126.205,39.422 129.603,47.817 134.301,55.613 C138.998,63.409 143.795,64.508 143.995,65.707 C144.195,66.907 137.999,68.206 132.102,62.309 C126.205,56.412 123.507,52.115 120.908,47.717 C118.309,43.32 115.311,41.573 115.311,41.573 C115.311,41.573 111.727,40.721 111.727,40.721 C111.727,40.721 109.914,39.122 109.914,39.122 C109.914,39.122 111.727,37.63 111.727,37.63 z" fill="#003660"/>
      <g>
        <path d="M77.666,50.917 C77.666,50.917 78.616,51.511 79.478,51.666 C80.35,51.823 81.258,52.01 81.477,51.791 C81.695,51.572 81.391,51.174 81.414,50.542 C81.438,49.878 81.571,49.199 81.571,49.199 C81.571,49.199 79.29,49.73 79.29,49.73 C79.29,49.73 77.604,51.01 77.666,50.917 z" fill="#DFA726"/>
        <path d="M81.572,49.543 C81.572,49.543 82.504,50.165 83.361,50.346 C84.227,50.529 85.13,50.742 85.355,50.53 C85.58,50.318 85.288,49.911 85.33,49.28 C85.373,48.617 85.526,47.942 85.526,47.942 C85.526,47.942 83.231,48.405 83.231,48.405 C83.231,48.405 81.507,49.634 81.572,49.543 z" fill="#DFA726"/>
        <path d="M85.528,47.864 C85.528,47.864 86.478,48.458 87.339,48.613 C88.211,48.77 89.119,48.957 89.338,48.738 C89.557,48.519 89.253,48.121 89.276,47.489 C89.3,46.826 89.432,46.146 89.432,46.146 C89.432,46.146 87.152,46.677 87.152,46.677 C87.152,46.677 85.465,47.957 85.528,47.864 z" fill="#DFA726"/>
        <path d="M89.121,46.568 C89.121,46.568 90.061,47.178 90.92,47.347 C91.789,47.519 92.694,47.721 92.916,47.506 C93.139,47.291 92.841,46.887 92.875,46.255 C92.91,45.593 93.053,44.915 93.053,44.915 C93.053,44.915 90.765,45.408 90.765,45.408 C90.765,45.408 89.057,46.66 89.121,46.568 z" fill="#DFA726"/>
        <path d="M92.633,45.269 C92.633,45.269 93.622,45.836 94.507,45.966 C95.404,46.098 96.338,46.258 96.556,46.033 C96.773,45.808 96.451,45.419 96.456,44.786 C96.462,44.123 96.578,43.439 96.578,43.439 C96.578,43.439 94.261,44.036 94.261,44.036 C94.261,44.036 92.572,45.365 92.633,45.269 z" fill="#DFA726"/>
        <path d="M95.997,44.039 C95.997,44.039 96.914,44.683 97.766,44.884 C98.629,45.087 99.526,45.321 99.756,45.115 C99.986,44.908 99.703,44.494 99.76,43.864 C99.819,43.203 99.987,42.531 99.987,42.531 C99.987,42.531 97.682,42.94 97.682,42.94 C97.682,42.94 95.93,44.129 95.997,44.039 z" fill="#DFA726"/>
        <path d="M99.376,42.639 C99.376,42.639 100.282,43.395 101.192,43.705 C102.113,44.018 103.068,44.367 103.358,44.192 C103.649,44.018 103.407,43.572 103.577,42.956 C103.756,42.31 104.058,41.668 104.058,41.668 C104.058,41.668 101.433,41.772 101.433,41.772 C101.433,41.772 99.286,42.72 99.376,42.639 z" fill="#DFA726"/>
        <path d="M104.036,41.755 C104.036,41.755 104.742,42.59 105.54,42.972 C106.348,43.358 107.181,43.783 107.49,43.628 C107.799,43.473 107.659,43.002 107.943,42.39 C108.241,41.749 108.654,41.12 108.654,41.12 C108.654,41.12 106.152,41.029 106.152,41.029 C106.152,41.029 103.935,41.83 104.036,41.755 z" fill="#DFA726"/>
      </g>
      <path d="M87.17,69.58 C87.17,69.68 82.173,67.181 78.075,62.484 C73.977,57.786 74.771,56.974 75.145,55.038 C75.569,53.406 76.528,51.96 77.456,50.574 C72.914,52.248 60.124,51.564 63.594,54.949 C70.087,61.284 66.981,59.086 72.878,64.183 C78.775,69.28 87.17,69.48 87.17,69.58 z" fill="#F2D9A1"/>
      <g>
        <path d="M85.671,5.74 C85.671,5.74 80.049,10.737 77.675,14.735 C75.302,18.733 75.052,19.045 75.427,20.982 C75.85,22.614 80.518,25.933 80.642,26.058 C80.767,26.183 76.02,25.621 71.335,23.997 C66.65,22.373 65.338,21.186 65.276,21.436 C65.213,21.686 70.762,14.527 75.801,10.737 C80.84,6.948 85.671,5.74 85.671,5.74 z" fill="url(#Gradient_1)"/>
      </g>
      <g>
        <path d="M80.423,26.273 C80.423,26.273 81.373,25.678 82.234,25.523 C83.106,25.366 84.014,25.18 84.233,25.398 C84.452,25.617 84.148,26.015 84.171,26.647 C84.194,27.311 84.327,27.991 84.327,27.991 C84.327,27.991 82.047,27.46 82.047,27.46 C82.047,27.46 80.36,26.179 80.423,26.273 z" fill="#DFA726"/>
        <path d="M84.328,27.834 C84.328,27.834 85.278,27.24 86.14,27.085 C87.012,26.928 87.92,26.741 88.139,26.96 C88.357,27.178 88.053,27.577 88.076,28.209 C88.1,28.872 88.232,29.552 88.232,29.552 C88.232,29.552 85.952,29.021 85.952,29.021 C85.952,29.021 84.266,27.741 84.328,27.834 z" fill="#DFA726"/>
        <path d="M88.234,29.583 C88.234,29.583 89.184,28.989 90.046,28.834 C90.918,28.677 91.826,28.49 92.045,28.709 C92.263,28.928 91.959,29.326 91.982,29.958 C92.006,30.621 92.138,31.301 92.138,31.301 C92.138,31.301 89.858,30.77 89.858,30.77 C89.858,30.77 88.172,29.49 88.234,29.583 z" fill="#DFA726"/>
        <path d="M92.14,31.332 C92.14,31.332 93.09,30.738 93.951,30.583 C94.823,30.426 95.732,30.239 95.95,30.458 C96.169,30.677 95.865,31.075 95.888,31.707 C95.912,32.37 96.044,33.05 96.044,33.05 C96.044,33.05 93.764,32.519 93.764,32.519 C93.764,32.519 92.078,31.239 92.14,31.332 z" fill="#DFA726"/>
        <path d="M96.046,33.234 C96.046,33.234 96.99,32.595 97.863,32.4 C98.747,32.202 99.667,31.974 99.901,32.182 C100.134,32.39 99.842,32.802 99.894,33.433 C99.949,34.094 100.115,34.767 100.115,34.767 C100.115,34.767 97.76,34.343 97.76,34.343 C97.76,34.343 95.978,33.143 96.046,33.234 z" fill="#DFA726"/>
        <path d="M100.117,34.518 C100.117,34.518 101.034,33.874 101.886,33.674 C102.749,33.471 103.646,33.236 103.876,33.443 C104.106,33.65 103.823,34.064 103.88,34.694 C103.939,35.355 104.107,36.027 104.107,36.027 C104.107,36.027 101.802,35.617 101.802,35.617 C101.802,35.617 100.05,34.428 100.117,34.518 z" fill="#DFA726"/>
        <path d="M104.109,35.685 C104.109,35.685 104.87,34.947 105.626,34.655 C106.392,34.36 107.186,34.03 107.423,34.211 C107.659,34.391 107.452,34.832 107.583,35.451 C107.721,36.1 107.959,36.748 107.959,36.748 C107.959,36.748 105.793,36.592 105.793,36.592 C105.793,36.592 104.036,35.603 104.109,35.685 z" fill="#DFA726"/>
        <path d="M107.962,37.173 C107.962,37.173 108.508,36.312 109.144,35.9 C109.787,35.482 110.449,35.025 110.704,35.169 C110.96,35.312 110.861,35.788 111.111,36.388 C111.372,37.018 111.727,37.63 111.727,37.63 C111.727,37.63 109.701,37.817 109.701,37.817 C109.701,37.817 107.878,37.102 107.962,37.173 z" fill="#DFA726"/>
      </g>
      <path d="M41.76,9.819 C41.76,9.819 42.026,10.835 42.194,11.033 C42.362,11.23 43.338,11.389 43.338,11.389 C43.338,11.389 43.235,11.953 43.372,12.108 C43.51,12.262 44.106,12.355 44.106,12.355 C44.106,12.355 44.067,13.032 44.175,13.175 C44.283,13.318 44.936,13.395 44.936,13.395 C44.936,13.395 44.865,14.158 45.069,14.341 C45.272,14.524 45.864,14.663 45.864,14.663 C45.864,14.663 45.871,15.396 46.023,15.556 C46.175,15.715 46.76,15.88 46.76,15.88 C46.76,15.88 46.902,16.574 47.002,16.692 C47.101,16.809 47.325,16.946 47.448,16.953 C47.571,16.96 48.251,16.837 48.251,16.837 C48.251,16.837 48.666,17.364 48.883,17.372 C49.1,17.381 49.843,16.914 49.843,16.914 C49.843,16.914 50.374,17.455 50.56,17.42 C50.746,17.385 51.492,16.989 51.492,16.989 C51.492,16.989 52.102,17.654 52.334,17.669 C52.566,17.683 53.089,17.169 53.089,17.169 C53.089,17.169 53.441,17.57 53.659,17.604 C53.877,17.639 54.914,17.286 54.914,17.286 C54.914,17.286 55.131,17.739 55.344,17.806 C55.556,17.873 56.41,17.754 56.41,17.754 C56.41,17.754 57.059,18.347 57.305,18.354 C57.551,18.362 58.277,18.153 58.277,18.153 C58.277,18.153 58.633,18.631 58.882,18.715 C59.132,18.8 60.011,18.781 60.011,18.781 C60.282,19.121 60.553,19.461 60.824,19.801 C57.034,19.291 53.189,19.206 49.357,19.3 C43.493,19.485 37.69,20.299 31.938,21.328 C32.828,19.247 34.167,17.343 35.59,15.52 C38.673,11.666 41.76,9.819 41.76,9.819 z" fill="url(#Gradient_2)"/>
    </g>
    <path d="M101.849,81.579 C101.849,81.579 101.849,81.579 101.849,81.579" fill="#0080FF"/>
    <g>
      <path d="M69.059,20.917 C73.498,22.088 77.871,23.565 82.145,25.293 L82.145,25.293 L83.43,25.813 C93.336,29.91 97.671,33.27 104.841,35.169 C112.011,37.068 117.418,38.048 117.607,38.948 C117.796,39.847 116.356,40.205 112.488,40.804 C108.619,41.404 100.506,42.903 92.393,45.802 C84.279,48.7 82.77,51.399 64.656,55.596 C46.543,59.794 28.901,53.897 18.618,50.399 C8.334,46.901 -1.383,42.004 0.315,40.605 C2.013,39.205 7.202,39.905 7.202,39.905 C7.202,39.905 0.127,35.507 0.221,34.308 C0.315,33.109 12.108,26.412 20.316,23.114 C28.523,19.816 40.599,18.117 51.165,18.217 C57.229,18.22 63.185,19.453 69.059,20.917" fill="#003660"/>
      <path d="M63.974,32.465 C63.974,32.465 98.88,36.463 98.88,36.463 C102.707,36.495 106.533,36.527 110.359,36.558 C112.282,37.062 114.24,37.445 116.133,38.071 C116.608,38.228 117.472,38.447 117.771,38.968 C117.959,39.867 116.356,40.267 112.488,40.867 C108.619,41.467 100.506,42.966 92.393,45.864 C84.279,48.763 82.77,51.461 64.656,55.659 C46.543,59.857 28.901,53.96 18.618,50.462 C8.334,46.964 -1.383,42.066 0.315,40.667 C2.013,39.268 7.202,39.967 7.202,39.967 C5.299,38.698 3.291,37.538 1.567,35.993 C10.459,35.112 19.35,34.219 28.242,33.34 C28.242,33.34 63.974,32.465 63.974,32.465 z" fill="#DCE3EA"/>
      <path d="M60.78,27.779 C60.78,27.779 69.009,28.657 69.009,28.657 C69.009,28.657 72.313,29.031 72.313,29.031 C72.313,29.031 77.55,29.406 77.55,29.406 C77.55,29.406 81.104,30.655 81.104,30.655 C81.104,30.655 84.803,31.405 84.803,31.405 C84.803,31.405 86.465,31.218 86.465,31.218 C86.465,31.218 87.026,31.842 87.026,31.842 C87.026,31.842 88.959,32.155 88.959,32.155 C88.959,32.155 90.829,32.717 90.829,32.717 C90.829,32.717 92.575,33.466 92.575,33.466 C92.575,33.466 94.882,33.529 94.882,33.529 C94.882,33.529 96.565,34.403 96.565,34.403 C96.565,34.403 98.622,34.466 98.622,34.466 C98.622,34.466 100.867,35.215 100.867,35.215 C100.867,35.215 104.046,35.965 104.046,35.965 C104.046,35.965 106.602,36.152 106.602,36.152 C106.602,36.152 110.218,36.965 110.218,36.965 C110.218,36.965 112.775,37.589 112.775,37.589 C112.775,37.589 114.832,37.858 114.832,37.858 C114.832,37.858 112.766,37.589 112.766,37.589 C112.766,37.589 108.542,37.858 108.542,37.858 L103.281,37.858 C103.281,37.858 97.519,38.691 97.519,38.691 C97.519,38.691 90.755,37.858 90.755,37.858 C90.755,37.858 84.116,37.192 84.116,37.192 C84.116,37.192 77.413,36.317 77.413,36.317 C77.413,36.317 72.216,37.192 72.216,37.192 C72.216,37.192 67.456,35.693 67.456,35.693 C67.456,35.693 60.065,35.068 60.065,35.068 C60.065,35.068 56.182,35.443 56.182,35.443 C56.182,35.443 52.674,36.817 52.674,36.817 C52.674,36.817 48.29,35.943 48.29,35.943 C48.29,35.943 41.775,36.692 41.775,36.692 C41.775,36.692 35.513,37.005 35.513,37.005 C35.513,37.005 33.008,36.068 33.008,36.068 C33.008,36.068 30.878,36.63 30.878,36.63 C30.878,36.63 27.809,37.858 27.809,37.858 C27.809,37.858 24.803,36.38 24.803,36.38 C24.803,36.38 21.546,36.88 21.546,36.88 C21.546,36.88 17.726,38.129 17.726,38.129 C17.726,38.129 14.594,38.191 14.594,38.191 C14.594,38.191 11.275,37.567 11.275,37.567 C11.275,37.567 8.331,36.38 8.331,36.38 C8.331,36.38 5.387,36.567 5.387,36.567 C4.289,36.527 3.191,36.487 2.093,36.448 C1.367,35.853 0.525,35.349 0.186,34.4 C0.6,34.276 1.014,34.152 1.428,34.029 C1.428,34.029 4.795,33.716 4.795,33.716 C4.795,33.716 5.792,33.029 5.792,33.029 C5.792,33.029 9.034,32.904 9.034,32.904 C9.034,32.904 11.715,32.155 11.715,32.155 C11.715,32.155 13.024,31.343 13.024,31.343 C13.024,31.343 15.144,31.53 15.144,31.53 C15.144,31.53 18.236,30.718 18.236,30.718 C18.236,30.718 20.007,31.03 20.007,31.03 C20.007,31.03 21.939,30.156 21.939,30.156 C21.939,30.156 24.558,30.156 24.558,30.156 C24.558,30.156 26.304,29.344 26.304,29.344 C26.304,29.344 28.735,29.156 28.735,29.156 C28.735,29.156 31.166,29.156 31.166,29.156 C31.166,29.156 32.725,28.594 32.725,28.594 C32.725,28.594 35.967,28.719 35.967,28.719 C35.967,28.719 39.645,28.657 39.645,28.657 C39.645,28.657 42.825,27.779 42.825,27.779 L60.78,27.779 z" fill="#F2D9A1"/>
      <path d="M59.197,25.929 C59.197,25.929 61.566,26.352 61.566,26.352 C61.566,26.352 63.25,26.803 63.25,26.803 C63.25,26.803 65.556,26.928 65.556,26.928 C65.556,26.928 67.302,26.866 67.302,26.866 C67.302,26.866 69.359,26.928 69.359,26.928 L70.209,26.928 C70.209,26.928 71.604,27.428 71.604,27.428 C71.604,27.428 73.287,27.799 73.287,27.799 L75.469,27.799 C75.469,27.799 76.84,28.552 76.84,28.552 C76.84,28.552 78.461,28.552 78.461,28.552 C78.461,28.552 80.207,28.927 80.207,28.927 C80.207,28.927 81.641,28.99 81.641,28.99 C81.641,28.99 82.576,29.677 82.576,29.677 C82.576,29.677 83.948,29.677 83.948,29.677 C83.948,29.677 85.382,29.927 85.382,29.927 C85.382,29.927 85.693,30.489 85.693,30.489 C85.693,30.489 87.314,30.676 87.314,30.676 C87.314,30.676 87.875,31.051 87.875,31.051 C87.875,31.051 89.06,31.426 89.06,31.426 C89.06,31.426 89.933,31.926 89.933,31.926 C89.933,31.926 91.055,32.175 91.055,32.175 C91.055,32.175 91.928,32.175 91.928,32.175 C91.928,32.175 92.988,33.05 92.988,33.05 C92.988,33.05 94.608,32.988 94.608,32.987 C94.608,32.988 95.98,33.3 95.98,33.3 C95.98,33.3 96.915,33.8 96.915,33.8 C96.915,33.8 98.474,33.737 98.474,33.737 C98.474,33.737 99.16,33.675 99.16,33.675 C99.16,33.675 100.843,34.549 100.843,34.549 C100.843,34.549 102.09,34.674 102.09,34.674 C102.09,34.674 102.713,34.924 102.713,34.924 C102.713,34.924 103.835,35.361 103.835,35.361 C103.835,35.361 105.456,35.674 105.456,35.674 L106.823,35.674 C109.778,36.421 108.716,36.155 110.007,36.478 C110.423,36.647 110.839,36.816 111.254,36.985 C111.254,36.985 114.87,37.879 114.87,37.879 C114.87,37.879 112.814,37.61 112.814,37.61 C112.814,37.61 110.257,36.985 110.257,36.985 C110.257,36.985 106.641,36.173 106.641,36.173 C106.641,36.173 104.085,35.986 104.085,35.986 C104.085,35.986 100.905,35.236 100.905,35.236 C100.905,35.236 98.661,34.487 98.661,34.487 C98.661,34.487 96.603,34.424 96.603,34.424 C96.603,34.424 94.92,33.55 94.92,33.55 C94.92,33.55 92.613,33.487 92.613,33.487 C92.613,33.487 90.868,32.738 90.868,32.738 C90.868,32.738 88.998,32.175 88.998,32.175 C88.998,32.175 87.065,31.863 87.065,31.863 C87.065,31.863 86.504,31.238 86.504,31.238 C86.504,31.238 84.841,31.426 84.841,31.426 C84.841,31.426 81.142,30.676 81.142,30.676 C81.142,30.676 77.589,29.427 77.589,29.427 C77.589,29.427 72.351,29.052 72.351,29.052 C72.351,29.052 69.048,28.677 69.048,28.677 C69.048,28.677 60.818,27.799 60.818,27.799 L42.863,27.799 C42.863,27.799 39.684,28.677 39.684,28.677 C39.684,28.677 36.005,28.74 36.005,28.74 C36.005,28.74 32.763,28.615 32.763,28.615 C32.763,28.615 31.205,29.177 31.205,29.177 L28.773,29.177 C28.773,29.177 26.342,29.365 26.342,29.365 C26.342,29.365 24.596,30.177 24.596,30.177 L21.978,30.177 C21.978,30.177 20.045,31.051 20.045,31.051 C20.045,31.051 18.275,30.739 18.275,30.739 C18.275,30.739 15.182,31.551 15.182,31.551 C15.182,31.551 13.063,31.363 13.063,31.363 C13.063,31.363 11.754,32.175 11.754,32.175 C11.754,32.175 9.073,32.925 9.073,32.925 C9.073,32.925 5.831,33.05 5.831,33.05 C5.831,33.05 4.833,33.737 4.833,33.737 C4.833,33.737 1.467,34.049 1.467,34.049 C1.053,34.173 0.638,34.297 0.224,34.421 L0.206,34.37 L0.236,34.322 C1.083,34.023 1.93,33.724 2.776,33.425 C2.776,33.425 4.522,33.3 4.522,33.3 C4.522,33.3 5.956,32.613 5.956,32.613 C5.956,32.613 7.764,32.55 7.764,32.55 C7.764,32.55 9.759,32.175 9.759,32.175 C9.759,32.175 10.756,31.676 10.756,31.676 C10.756,31.676 11.816,31.426 11.816,31.426 C11.816,31.426 13.474,30.801 13.474,30.801 C13.474,30.801 15.12,30.426 15.12,30.426 C15.12,30.426 16.305,30.301 16.305,30.301 C16.305,30.301 17.988,29.864 17.988,29.864 C17.988,29.864 20.482,29.177 20.482,29.177 C20.482,29.177 22.788,28.677 22.788,28.677 L24.846,28.677 C24.846,28.677 25.906,28.115 25.906,28.115 C25.906,28.115 27.714,27.799 27.714,27.799 L30.083,27.799 C30.083,27.799 32.95,27.366 32.95,27.366 C32.95,27.366 35.694,27.178 35.694,27.178 C35.694,27.178 37.439,26.991 37.439,26.991 C37.439,26.991 39.434,27.053 39.434,27.053 C39.434,27.053 40.743,26.616 40.743,26.616 L44.359,26.616 C44.359,26.616 45.856,26.352 45.856,26.352 L55.768,26.352 C55.768,26.352 57.701,25.929 57.701,25.929 L59.197,25.929 z" fill="#0080FF"/>
      <path d="M6.725,39.68 C10.825,41.086 14.947,42.419 19.077,43.722 C27.568,46.387 30.556,47.053 39.046,48.552 C47.537,50.051 50.053,50.385 56.971,50.718 C63.89,51.051 69.516,50.051 76.137,49.552 C79.052,49.333 81.97,49.144 84.888,48.977 C78.404,52.118 71.468,53.961 64.535,55.596 C46.422,59.794 28.78,53.897 18.496,50.399 C8.213,46.901 -1.504,42.004 0.194,40.605 C1.892,39.205 7.081,39.905 7.081,39.905 C6.962,39.831 6.843,39.755 6.725,39.68 z" fill="#BAC9D6"/>
    </g>
    <g>
      <path d="M15.749,38.498 C13.464,38.498 11.611,36.659 11.611,34.391 C11.611,32.122 13.464,30.283 15.749,30.283 C18.034,30.283 19.887,32.122 19.887,34.391 C19.887,36.659 18.034,38.498 15.749,38.498 z" fill="#FCF3E8"/>
      <path d="M15.749,36.566 C14.462,36.566 13.419,35.56 13.419,34.318 C13.419,33.077 14.462,32.071 15.749,32.071 C17.036,32.071 18.079,33.077 18.079,34.318 C18.079,35.56 17.036,36.566 15.749,36.566 z" fill="#405058"/>
      <path d="M15.375,35.062 C14.602,35.062 13.975,34.449 13.975,33.693 C13.975,32.936 14.602,32.323 15.375,32.323 C16.148,32.323 16.775,32.936 16.775,33.693 C16.775,34.449 16.148,35.062 15.375,35.062 z" fill="#FDFDFD"/>
    </g>
    <path d="M33.109,35.695 C33.235,35.128 39.47,32.145 46.148,31.128 C52.825,30.11 55.002,30.059 57.972,30.27 C60.942,30.481 67.66,32.338 67.548,32.751 C67.435,33.164 64.29,32.955 60.935,33.65 C57.58,34.346 52.715,36.677 52.715,36.677 C52.715,36.677 48.154,38.912 48.154,38.912 C48.154,38.912 44.614,39.967 41.749,39.437 C38.883,38.906 35.254,37.464 35.254,37.464 C35.254,37.464 32.983,36.262 33.109,35.695 z" fill="#003660"/>
    <path d="M15.234,48.969 C15.234,48.969 21.572,49.656 25.97,45.122 C30.368,40.588 25.37,28.98 25.37,28.98 C25.37,28.98 31.467,38.502 27.569,45.212 C23.671,51.923 18.567,49.888 18.567,49.888 C18.567,49.888 15.234,48.969 15.234,48.969 z" fill="#6B7F90"/>
  </g>
</svg>
