<?xml version="1.0" encoding="UTF-8"?>
<!DOCTYPE svg PUBLIC "-//W3C//DTD SVG 1.1//EN" "http://www.w3.org/Graphics/SVG/1.1/DTD/svg11.dtd">
<svg version="1.1" xmlns="http://www.w3.org/2000/svg" xmlns:xlink="http://www.w3.org/1999/xlink" x="0" y="0" width="216" height="108" viewBox="0, 0, 216, 108">
  <g id="Layer_1">
    <g>
      <path d="M60.267,20.708 L60.267,20.708 C63.396,20.708 65.933,23.709 65.933,27.41 L65.933,29.381 C65.933,33.083 63.396,36.083 60.267,36.083 L60.267,36.083 C57.137,36.083 54.6,33.083 54.6,29.381 L54.6,27.41 C54.6,23.709 57.137,20.708 60.267,20.708 z" fill="#016D2C"/>
      <path d="M154.087,12.958 L154.087,12.958 C157.217,12.958 159.754,15.959 159.754,19.66 L159.754,21.631 C159.754,25.333 157.217,28.333 154.087,28.333 L154.087,28.333 C150.958,28.333 148.421,25.333 148.421,21.631 L148.421,19.66 C148.421,15.959 150.958,12.958 154.087,12.958 z" fill="#016D2C"/>
    </g>
    <path d="M154.775,26.667 L154.775,31.641 C158.304,35.933 163.188,38.879 168,41.515 C179.125,47.39 192.4,47.733 192.4,47.733 C192.4,47.733 175.437,47.793 165.6,42.533 C161.601,40.395 154.067,33.667 154.067,33.667 C151.641,36.869 148.75,39.663 145.812,42.385 L156.605,60.233 L155.086,61.152 L144.458,43.576 C137.473,49.092 141.16,46.488 133.371,51.35 L141.114,70.501 L139.469,71.166 L131.805,52.212 C128.083,54.313 124.09,55.652 119.974,56.687 L121.777,76.505 L120.01,76.666 L118.231,57.116 C112.978,57.891 115.261,57.675 111.4,57.933 C106.039,57.899 108.217,58.105 104.842,57.671 L103.055,78.246 L101.287,78.092 L103.08,57.444 C97.82,56.95 92.802,56 87.802,54.116 L82.913,81.077 L81.104,80.749 L86.053,53.457 C79.952,51.514 74.28,48.544 68.67,45.512 L65.356,65.582 L63.605,65.292 L67.03,44.552 C64.894,43.287 62.77,41.985 60.754,40.533 C60.754,40.533 49.8,49.533 42.6,53.133 C35.4,56.733 23.6,58.333 23.6,58.333 C23.6,58.333 31.2,56.733 42,50.933 C48.217,47.583 54.028,43.512 59.379,38.91 L59.379,34.333 L61.154,34.333 L61.154,38.465 C76.795,47.378 94.326,56.287 112.8,55.333 C128.871,53.528 142.825,43.184 153.4,31.43 L153.4,26.667 L154.775,26.667 z" fill="#006D2C"/>
    <path d="M54.6,24.771 L65.933,24.771 L65.933,33.562 L54.6,33.562 L54.6,24.771 z" fill="#83C59D"/>
    <path d="M148.421,16.875 L159.754,16.875 L159.754,25.667 L148.421,25.667 L148.421,16.875 z" fill="#83C59D"/>
    <path d="M64.433,64.905 C63.625,64.808 63.333,65.327 63.333,65.327 C63.333,65.327 61.382,68.99 61.17,70.943 C60.958,72.896 62.834,75.876 65.908,75.976 C68.982,76.076 70.158,73.747 70.261,72.595 C70.365,71.444 69.847,70.217 69.847,70.217 L70.185,66.91 L67.496,70.392 L68.533,70.242 C68.533,70.242 69.501,74.365 66.39,74.44 C63.279,74.515 62.864,72.295 63.141,70.192 C63.417,68.088 65.27,65.558 65.27,65.558 C65.27,65.558 65.242,65.001 64.433,64.905 z" fill="#84C59D"/>
    <path d="M82.246,80.214 C81.437,80.118 81.145,80.636 81.145,80.636 C81.145,80.636 79.195,84.3 78.983,86.253 C78.771,88.206 80.647,91.185 83.721,91.285 C86.795,91.386 87.97,89.057 88.074,87.905 C88.177,86.753 87.659,85.526 87.659,85.526 L87.998,82.22 L85.308,85.702 L86.345,85.552 C86.345,85.552 87.313,89.674 84.202,89.749 C81.091,89.825 80.676,87.605 80.953,85.501 C81.23,83.398 83.082,80.868 83.082,80.868 C83.082,80.868 83.055,80.311 82.246,80.214 z" fill="#84C59D"/>
    <path d="M102.044,77.241 C102.853,77.144 103.145,77.663 103.145,77.663 C103.145,77.663 105.095,81.326 105.307,83.279 C105.519,85.232 103.643,88.212 100.569,88.312 C97.495,88.412 96.32,86.083 96.216,84.932 C96.112,83.78 96.631,82.553 96.631,82.553 L96.292,79.247 L98.981,82.728 L97.944,82.578 C97.944,82.578 96.977,86.701 100.088,86.776 C103.198,86.851 103.613,84.631 103.337,82.528 C103.06,80.425 101.207,77.894 101.207,77.894 C101.207,77.894 101.235,77.337 102.044,77.241 z" fill="#84C59D"/>
    <path d="M139.983,70.327 C140.771,70.12 141.131,70.593 141.131,70.593 C141.131,70.593 143.571,73.95 144.051,75.855 C144.532,77.76 143.087,80.971 140.056,81.496 C137.026,82.021 135.539,79.878 135.277,78.751 C135.015,77.625 135.358,76.338 135.358,76.338 L134.564,73.111 L137.71,76.186 L136.662,76.181 C136.662,76.181 136.275,80.398 139.367,80.042 C142.458,79.685 142.561,77.429 141.996,75.384 C141.431,73.34 139.245,71.091 139.245,71.091 C139.245,71.091 139.195,70.535 139.983,70.327 z" fill="#84C59D"/>
    <path d="M120.843,76.24 C120.034,76.333 119.87,76.905 119.87,76.905 C119.87,76.905 118.819,80.92 119.065,82.869 C119.31,84.818 121.824,87.283 124.838,86.67 C127.852,86.056 128.457,83.519 128.291,82.374 C128.126,81.23 127.338,80.156 127.338,80.156 L126.903,76.861 L125.092,80.87 L126.066,80.484 C126.066,80.484 127.961,84.272 124.951,85.064 C121.942,85.856 121.025,83.793 120.808,81.682 C120.591,79.572 121.808,76.682 121.808,76.682 C121.808,76.682 121.652,76.146 120.843,76.24 z" fill="#84C59D"/>
    <path d="M155.483,60.204 C156.175,59.773 156.659,60.119 156.659,60.119 C156.659,60.119 159.979,62.609 160.999,64.288 C162.02,65.966 161.585,69.46 158.844,70.855 C156.103,72.25 154.05,70.639 153.468,69.64 C152.886,68.641 152.835,67.31 152.835,67.31 L151.125,64.46 L155.037,66.472 L154.035,66.776 C154.035,66.776 154.907,70.92 157.756,69.668 C160.605,68.417 160.039,66.23 158.897,64.443 C157.754,62.656 155.003,61.15 155.003,61.15 C155.003,61.15 154.791,60.634 155.483,60.204 z" fill="#84C59D"/>
  </g>
</svg>
