<?xml version="1.0" encoding="UTF-8"?>
<!DOCTYPE svg PUBLIC "-//W3C//DTD SVG 1.1//EN" "http://www.w3.org/Graphics/SVG/1.1/DTD/svg11.dtd">
<svg version="1.1" xmlns="http://www.w3.org/2000/svg" xmlns:xlink="http://www.w3.org/1999/xlink" x="0" y="0" width="216" height="108" viewBox="0, 0, 216, 108">
  <g id="Layer_1">
    <path d="M31.2,52.312 C31.2,52.312 64.81,43.923 103.192,45.906 C141.574,47.889 168.959,53.075 168.959,53.075 L168.13,54.6 C168.13,54.6 142.611,48.956 102.569,47.126 C62.528,45.295 32.437,53.685 32.437,53.685 L31.2,52.312 z" fill="#08519B"/>
    <path d="M132.985,31.187 C132.985,31.187 137.153,40.469 135.028,48.719 C132.903,56.969 131.874,59.938 126.874,70.688 C121.874,81.438 115.624,88.563 115.624,88.563 L113.687,88.313 C113.687,88.313 120.403,80.719 125.403,69.969 C130.403,59.219 131.153,56.719 133.528,47.844 C135.903,38.969 130.25,30.165 130.25,30.165 L132.985,31.187 z" fill="#08519B"/>
    <path d="M79.193,31.875 C79.193,31.875 79.875,42.005 82,50.255 C84.125,58.505 86.25,62.25 91.25,73 C96.25,83.75 104.511,89.375 104.511,89.375 L106.943,89.25 C106.943,89.25 97.75,82.75 92.75,72 C87.75,61.25 86.625,59.034 84.25,50.159 C81.875,41.284 80.738,31.875 80.738,31.875 L79.193,31.875 z" fill="#08519B"/>
    <path d="M95.625,23 C95.625,23 176.337,37.333 176.065,42.333 C175.738,43.19 176.013,42.708 174.964,43.578 C168.326,57.022 161.779,73.65 151.356,84.4 C141.311,94.2 124.2,98.8 112.683,99.333 C101.166,99.867 86.2,100.4 61.869,87 C42.394,74.726 30.037,52.998 21.689,31.981 L21.337,31.667 C17.675,27.896 48.004,31.667 65.671,31.333 C73.409,31.187 93.09,29.257 101.5,28.173 C101.953,28.095 106.204,27.624 104.919,26.357 C103.376,24.834 100.102,24.175 98.06,23.621 C97.331,23.361 96.291,23.337 95.625,23 C96.444,23.178 97.252,23.401 98.06,23.621 C100.504,24.256 103.006,24.787 105.343,25.77 C105.83,25.975 107.467,26.547 107.668,27.464 C107.893,28.489 104.937,28.881 104.375,29 C96.384,30.504 82.875,33.25 67.004,34 L66.001,34.047 C65.303,34.08 65.763,34.059 64.622,34.112 C63.145,34.182 63.766,34.153 62.759,34.201 C61.685,34.251 62.172,34.228 61.299,34.27 C60.93,34.287 60.339,34.315 59.971,34.332 C59.824,34.339 60.266,34.318 60.413,34.311 C60.708,34.297 61.004,34.283 61.299,34.27 C62.058,34.234 61.572,34.257 62.759,34.201 C64.079,34.138 63.458,34.168 64.622,34.112 C65.739,34.06 65.279,34.081 66.001,34.047 C66.888,34.005 66.553,34.021 67.004,34 C50.337,35 20.72,28.667 28.337,33.333 C35.954,38 67.337,54 94.004,55 C120.671,56 178,43.8 169.505,40.667 C161.01,37.533 95.625,23 95.625,23 z M112.637,89.228 C109.038,89.256 110.593,89.174 107.969,89.375 C99.281,90.25 97.312,93.188 96.219,94.75 L96.123,94.975 L98.105,96.797 L98.398,96.926 C102.492,97.473 106.636,97.269 110.75,97.125 C115.004,96.929 119.221,96.187 123.347,95.156 L124.459,93.707 C124.745,92.751 124.786,93.183 124.5,92.406 C121.388,89.897 116.445,89.529 112.637,89.228 z M24.387,33.84 C33.153,53.404 44.901,73.35 63.7,84.667 C73.484,90.416 84.019,94.474 95.163,96.527 C87.574,89.82 79.659,82.969 74.5,74.125 C70.834,67.066 67.745,59.723 64.803,52.338 C50.909,47.311 36.966,41.71 24.387,33.84 z M171.957,45.14 C163.626,48.225 154.901,50.224 146.186,51.891 C144.295,59.027 141.83,65.987 139,72.8 C135.471,80.459 130.935,87.622 126.048,94.481 C134.901,92.241 143.45,88.431 150.2,82.2 C159.597,71.314 165.985,58.139 171.957,45.14 z M143.342,52.436 C127.068,55.44 110.594,58.125 94.004,58.333 C84.947,58.351 76.225,55.822 67.626,53.28 C70.385,61.44 73.672,69.53 78.625,76.625 C83.551,82.945 89.225,88.635 95.117,94.05 C96.823,89.768 103.542,88.796 107.5,88.125 C111.966,87.511 116.563,87.968 120.858,89.328 C122.184,89.747 125.008,90.545 125.738,91.981 C130.111,86.144 133.608,79.737 136.8,73.2 C139.614,66.51 141.972,59.576 143.342,52.436 z" fill="#08519B"/>
    <g>
      <path d="M116.143,55.571 L116.143,55.571 C116.235,57.596 114.091,59.338 111.355,59.462 L109.897,59.529 C107.161,59.654 104.868,58.114 104.775,56.09 L104.775,56.09 C104.683,54.065 106.827,52.323 109.563,52.199 L111.021,52.132 C113.757,52.007 116.05,53.547 116.143,55.571 z" fill="#6B90C0"/>
      <path d="M132.974,53.5 L132.974,53.5 C133.152,55.518 131.085,57.35 128.356,57.591 L126.903,57.719 C124.174,57.96 121.817,56.519 121.639,54.5 L121.639,54.5 C121.461,52.482 123.529,50.65 126.257,50.409 L127.711,50.281 C130.439,50.04 132.796,51.481 132.974,53.5 z" fill="#6B90C0"/>
      <path d="M150.07,50.046 L150.07,50.046 C150.367,52.051 148.411,54.001 145.701,54.402 L144.258,54.616 C141.548,55.017 139.11,53.718 138.813,51.713 L138.813,51.713 C138.516,49.709 140.473,47.759 143.182,47.357 L144.626,47.144 C147.335,46.742 149.773,48.042 150.07,50.046 z" fill="#6B90C0"/>
      <path d="M167.806,45.811 L167.806,45.811 C168.217,47.796 166.375,49.854 163.692,50.409 L162.263,50.704 C159.581,51.259 157.073,50.1 156.663,48.116 L156.663,48.116 C156.253,46.131 158.095,44.073 160.777,43.518 L162.206,43.223 C164.889,42.668 167.396,43.827 167.806,45.811 z" fill="#6B90C0"/>
      <path d="M98.743,56.25 L98.743,56.25 C98.602,58.271 96.272,59.755 93.539,59.563 L92.084,59.462 C89.351,59.27 87.25,57.477 87.392,55.455 L87.392,55.455 C87.533,53.434 89.863,51.95 92.596,52.142 L94.051,52.243 C96.784,52.435 98.885,54.228 98.743,56.25 z" fill="#6B90C0"/>
      <path d="M80.504,54.985 L80.504,54.985 C80.153,56.981 77.682,58.214 74.984,57.74 L73.547,57.487 C70.849,57.013 68.946,55.011 69.297,53.015 L69.297,53.015 C69.647,51.019 72.119,49.786 74.817,50.26 L76.254,50.513 C78.952,50.987 80.855,52.989 80.504,54.985 z" fill="#6B90C0"/>
      <path d="M64.133,49.758 L64.133,49.758 C63.55,51.699 60.951,52.633 58.327,51.845 L56.93,51.426 C54.306,50.638 52.652,48.425 53.235,46.485 L53.235,46.485 C53.818,44.544 56.417,43.61 59.041,44.398 L60.438,44.818 C63.062,45.606 64.716,47.818 64.133,49.758 z" fill="#6B90C0"/>
      <path d="M47.323,43.789 L47.323,43.789 C46.74,45.729 44.141,46.664 41.517,45.876 L40.12,45.456 C37.496,44.668 35.842,42.456 36.425,40.515 L36.425,40.515 C37.008,38.574 39.607,37.64 42.231,38.428 L43.628,38.848 C46.252,39.636 47.906,41.848 47.323,43.789 z" fill="#6B90C0"/>
      <path d="M32.049,35.805 L32.049,35.805 C31.466,37.746 28.866,38.68 26.243,37.892 L24.845,37.472 C22.222,36.684 20.568,34.472 21.151,32.532 L21.151,32.532 C21.733,30.591 24.333,29.657 26.956,30.445 L28.354,30.864 C30.977,31.653 32.632,33.865 32.049,35.805 z" fill="#6B90C0"/>
      <path d="M168.88,39.311 L168.88,39.311 C168.45,40.744 166.39,41.391 164.279,40.757 L163.155,40.419 C161.044,39.785 159.681,38.11 160.111,36.677 L160.111,36.677 C160.542,35.245 162.602,34.598 164.713,35.232 L165.837,35.57 C167.948,36.204 169.31,37.879 168.88,39.311 z" fill="#6B90C0"/>
      <path d="M42.804,31.197 L42.804,31.197 C42.714,32.69 40.857,33.793 38.657,33.66 L37.485,33.589 C35.285,33.457 33.575,32.139 33.665,30.646 L33.665,30.646 C33.755,29.154 35.611,28.051 37.811,28.184 L38.983,28.254 C41.183,28.387 42.894,29.704 42.804,31.197 z" fill="#6B90C0"/>
      <path d="M56.582,32.525 L56.582,32.525 C56.492,34.017 54.636,35.12 52.436,34.987 L51.264,34.917 C49.064,34.784 47.353,33.466 47.443,31.974 L47.443,31.974 C47.533,30.481 49.39,29.378 51.59,29.511 L52.761,29.581 C54.962,29.714 56.672,31.032 56.582,32.525 z" fill="#6B90C0"/>
      <path d="M70.88,32.865 L70.88,32.865 C70.883,34.361 69.098,35.576 66.894,35.581 L65.72,35.583 C63.516,35.587 61.727,34.379 61.724,32.883 L61.724,32.883 C61.721,31.388 63.506,30.172 65.71,30.167 L66.884,30.165 C69.088,30.161 70.877,31.37 70.88,32.865 z" fill="#6B90C0"/>
      <path d="M156.586,35.362 L156.586,35.362 C156.37,36.842 154.427,37.784 152.246,37.465 L151.084,37.296 C148.903,36.978 147.31,35.52 147.526,34.04 L147.526,34.04 C147.742,32.56 149.686,31.619 151.867,31.937 L153.028,32.106 C155.209,32.425 156.802,33.882 156.586,35.362 z" fill="#6B90C0"/>
    </g>
    <path d="M33.146,53.38 C33.146,53.38 60.406,65.8 98.248,69.8 C136.09,73.8 168,55 168,55 C168,55 167.386,57.6 167.386,57.6 C167.386,57.6 134.045,74.8 98.453,71.8 C62.861,68.8 36.631,56.8 36.631,56.8 L33.146,53.38 z" fill="#08519B"/>
    <path d="M97,97.4 L118.8,89.375 L120.858,89.328 L98.6,98.4 L97,97.4 z" fill="#08519B"/>
    <path d="M100.2,90.6 L123.6,96.6 L121.8,97.2 L98,91.4 L100.2,90.6 z" fill="#08519B"/>
  </g>
</svg>
