<?xml version="1.0" encoding="UTF-8"?>
<!DOCTYPE svg PUBLIC "-//W3C//DTD SVG 1.1//EN" "http://www.w3.org/Graphics/SVG/1.1/DTD/svg11.dtd">
<svg version="1.1" xmlns="http://www.w3.org/2000/svg" xmlns:xlink="http://www.w3.org/1999/xlink" x="0" y="0" width="288" height="158.4" viewBox="0, 0, 144, 79.2">
  <defs>
    <linearGradient id="Gradient_1" gradientUnits="userSpaceOnUse" x1="0.186" y1="36.364" x2="115.192" y2="36.364">
      <stop offset="0" stop-color="#ADD0F3"/>
      <stop offset="1" stop-color="#1F2532"/>
    </linearGradient>
  </defs>
  <g id="Layer_2">
    <path d="M10.107,47.267 C10.107,47.267 10.107,47.267 10.107,47.267" fill="#0080FF"/>
    <g>
      <g>
        <path d="M30.152,53.602 C30.152,53.602 32.497,57.066 33.959,58.419 C35.421,59.772 37.219,61.233 38.711,61.774 C40.204,62.315 41.087,61.991 41.209,61.72 C41.331,61.45 40.843,61.044 40.173,59.853 C39.503,58.662 40.173,57.391 39.046,56.417 C37.919,55.442 35.635,54.793 35.635,54.793 C35.635,54.793 34.355,53.738 33.076,53.494 C31.797,53.251 30.06,53.656 30.152,53.602 z" fill="#DCE3EA"/>
        <path d="M112.525,40.037 C112.525,40.037 114.168,40.42 116.703,38.883 C119.237,37.346 123.136,32.93 125.67,29.986 C128.205,27.042 131.714,24.011 135.125,22.106 C138.537,20.201 142.436,20.201 142.533,20.894 C142.631,21.587 139.512,21.36 133.468,29.353 C127.425,37.346 126.645,41.589 126.645,41.589 C126.645,41.589 129.959,48.862 134.54,55.616 C139.122,62.37 143.8,63.323 143.995,64.362 C144.19,65.401 138.147,66.527 132.396,61.418 C126.645,56.309 124.013,52.586 121.479,48.776 C118.945,44.966 116.02,43.453 116.02,43.453 C116.02,43.453 112.525,42.715 112.525,42.715 C112.525,42.715 110.757,41.329 110.757,41.329 C110.757,41.329 112.525,40.037 112.525,40.037 z" fill="#111517"/>
        <g>
          <path d="M79.368,51.11 C79.368,51.11 80.305,51.545 81.148,51.646 C82.001,51.749 82.891,51.874 83.1,51.704 C83.309,51.533 83.005,51.236 83.015,50.754 C83.026,50.249 83.142,49.729 83.142,49.729 C83.142,49.729 80.929,50.176 80.929,50.176 C80.929,50.176 79.309,51.183 79.368,51.11 z" fill="#BAC9D6"/>
          <path d="M83.15,49.99 C83.15,49.99 84.071,50.446 84.909,50.568 C85.758,50.691 86.642,50.836 86.857,50.67 C87.073,50.505 86.78,50.2 86.809,49.719 C86.839,49.214 86.975,48.697 86.975,48.697 C86.975,48.697 84.746,49.093 84.746,49.093 C84.746,49.093 83.089,50.062 83.15,49.99 z" fill="#BAC9D6"/>
          <path d="M86.975,48.637 C86.975,48.637 87.913,49.072 88.756,49.174 C89.609,49.277 90.498,49.401 90.707,49.231 C90.916,49.06 90.612,48.763 90.623,48.281 C90.634,47.776 90.75,47.256 90.75,47.256 C90.75,47.256 88.537,47.703 88.537,47.703 C88.537,47.703 86.916,48.71 86.975,48.637 z" fill="#BAC9D6"/>
          <path d="M90.455,47.583 C90.455,47.583 91.383,48.029 92.223,48.142 C93.074,48.256 93.96,48.392 94.173,48.225 C94.386,48.057 94.088,47.755 94.109,47.274 C94.131,46.769 94.258,46.25 94.258,46.25 C94.258,46.25 92.036,46.669 92.036,46.669 C92.036,46.669 90.394,47.655 90.455,47.583 z" fill="#BAC9D6"/>
          <path d="M93.855,46.528 C93.855,46.528 94.83,46.94 95.695,47.023 C96.572,47.106 97.486,47.21 97.694,47.035 C97.901,46.86 97.58,46.569 97.574,46.088 C97.567,45.582 97.667,45.06 97.667,45.06 C97.667,45.06 95.419,45.558 95.419,45.558 C95.419,45.558 93.797,46.602 93.855,46.528 z" fill="#BAC9D6"/>
          <path d="M97.112,45.528 C97.112,45.528 98.018,46 98.853,46.137 C99.697,46.275 100.576,46.436 100.797,46.275 C101.017,46.113 100.734,45.803 100.777,45.323 C100.822,44.818 100.973,44.304 100.973,44.304 C100.973,44.304 98.734,44.659 98.734,44.659 C98.734,44.659 97.048,45.598 97.112,45.528 z" fill="#BAC9D6"/>
          <path d="M100.38,44.398 C100.38,44.398 101.278,44.956 102.171,45.175 C103.075,45.395 104.012,45.643 104.292,45.504 C104.572,45.366 104.328,45.031 104.482,44.559 C104.645,44.064 104.927,43.57 104.927,43.57 C104.927,43.57 102.369,43.699 102.369,43.699 C102.369,43.699 100.294,44.461 100.38,44.398 z" fill="#BAC9D6"/>
          <path d="M104.907,43.637 C104.907,43.637 105.611,44.259 106.397,44.534 C107.192,44.813 108.011,45.12 108.31,44.996 C108.608,44.872 108.463,44.517 108.729,44.046 C109.007,43.552 109.398,43.065 109.398,43.065 C109.398,43.065 106.957,43.044 106.957,43.044 C106.957,43.044 104.81,43.696 104.907,43.637 z" fill="#BAC9D6"/>
        </g>
        <path d="M88.575,67.68 C88.575,67.767 83.702,65.602 79.705,61.532 C75.709,57.463 76.482,56.759 76.848,55.081 C77.261,53.667 78.196,52.415 79.102,51.214 C74.671,52.665 62.197,52.072 65.582,55.005 C71.914,60.493 68.885,58.588 74.636,63.004 C80.387,67.42 88.575,67.594 88.575,67.68 z" fill="#DCE3EA"/>
        <g>
          <path d="M86.737,12.445 C86.737,12.445 81.254,16.774 78.939,20.238 C76.624,23.702 76.38,23.972 76.745,25.65 C77.159,27.064 81.711,29.94 81.832,30.048 C81.954,30.156 77.324,29.669 72.755,28.262 C68.186,26.855 66.907,25.827 66.846,26.043 C66.785,26.26 72.197,20.058 77.111,16.774 C82.025,13.491 86.737,12.445 86.737,12.445 z" fill="#BAC9D6"/>
        </g>
        <g>
          <path d="M81.995,30.16 C81.995,30.16 82.921,29.645 83.761,29.511 C84.612,29.375 85.498,29.213 85.711,29.403 C85.924,29.592 85.628,29.937 85.65,30.485 C85.673,31.06 85.802,31.649 85.802,31.649 C85.802,31.649 83.578,31.189 83.578,31.189 C83.578,31.189 81.934,30.079 81.995,30.16 z" fill="#BAC9D6"/>
          <path d="M85.804,31.513 C85.804,31.513 86.73,30.998 87.57,30.864 C88.421,30.728 89.307,30.566 89.52,30.756 C89.733,30.945 89.437,31.29 89.459,31.838 C89.482,32.413 89.611,33.001 89.611,33.001 C89.611,33.001 87.388,32.541 87.388,32.541 C87.388,32.541 85.743,31.432 85.804,31.513 z" fill="#BAC9D6"/>
          <path d="M89.613,33.029 C89.613,33.029 90.54,32.514 91.38,32.379 C92.23,32.243 93.116,32.081 93.329,32.271 C93.542,32.46 93.246,32.806 93.268,33.353 C93.292,33.928 93.421,34.517 93.421,34.517 C93.421,34.517 91.197,34.057 91.197,34.057 C91.197,34.057 89.552,32.947 89.613,33.029 z" fill="#BAC9D6"/>
          <path d="M93.422,34.544 C93.422,34.544 94.349,34.029 95.189,33.894 C96.039,33.758 96.925,33.597 97.138,33.786 C97.352,33.976 97.055,34.321 97.078,34.869 C97.101,35.443 97.23,36.032 97.23,36.032 C97.23,36.032 95.006,35.572 95.006,35.572 C95.006,35.572 93.361,34.463 93.422,34.544 z" fill="#BAC9D6"/>
          <path d="M97.232,36.191 C97.232,36.191 98.152,35.638 99.004,35.469 C99.866,35.297 100.764,35.099 100.991,35.28 C101.219,35.46 100.934,35.817 100.985,36.363 C101.038,36.936 101.2,37.519 101.2,37.519 C101.2,37.519 98.904,37.152 98.904,37.152 C98.904,37.152 97.165,36.112 97.232,36.191 z" fill="#BAC9D6"/>
          <path d="M101.202,37.304 C101.202,37.304 102.097,36.746 102.928,36.572 C103.769,36.396 104.644,36.193 104.868,36.372 C105.092,36.551 104.817,36.91 104.872,37.456 C104.929,38.029 105.093,38.611 105.093,38.611 C105.093,38.611 102.845,38.256 102.845,38.256 C102.845,38.256 101.136,37.226 101.202,37.304 z" fill="#BAC9D6"/>
          <path d="M105.095,38.315 C105.095,38.315 105.837,37.675 106.575,37.423 C107.322,37.167 108.096,36.881 108.327,37.037 C108.558,37.193 108.356,37.576 108.484,38.112 C108.618,38.674 108.85,39.236 108.85,39.236 C108.85,39.236 106.738,39.101 106.738,39.101 C106.738,39.101 105.024,38.243 105.095,38.315 z" fill="#BAC9D6"/>
          <path d="M108.853,39.604 C108.853,39.604 109.386,38.858 110.006,38.501 C110.633,38.139 111.278,37.743 111.528,37.867 C111.777,37.991 111.681,38.404 111.924,38.924 C112.179,39.469 112.525,40 112.525,40 C112.525,40 110.549,40.162 110.549,40.162 C110.549,40.162 108.771,39.543 108.853,39.604 z" fill="#BAC9D6"/>
        </g>
        <path d="M45.523,16.71 C45.523,16.71 45.732,17.56 45.886,17.73 C46.04,17.9 46.981,18.072 46.981,18.072 C46.981,18.072 46.854,18.534 46.98,18.667 C47.106,18.799 47.682,18.901 47.682,18.901 C47.682,18.901 47.61,19.459 47.708,19.581 C47.806,19.703 48.439,19.795 48.439,19.795 C48.439,19.795 48.332,20.421 48.521,20.581 C48.71,20.74 49.279,20.879 49.279,20.879 C49.279,20.879 49.25,21.484 49.39,21.623 C49.53,21.761 50.092,21.921 50.092,21.921 C50.092,21.921 50.196,22.5 50.287,22.601 C50.378,22.702 50.589,22.825 50.708,22.836 C50.827,22.846 51.495,22.773 51.495,22.773 C51.495,22.773 51.874,23.225 52.084,23.242 C52.295,23.258 53.041,22.904 53.041,22.904 C53.041,22.904 53.532,23.372 53.714,23.351 C53.897,23.33 54.643,23.034 54.643,23.034 C54.643,23.034 55.203,23.609 55.428,23.63 C55.653,23.652 56.188,23.249 56.188,23.249 C56.188,23.249 56.51,23.595 56.721,23.633 C56.932,23.67 57.958,23.423 57.958,23.423 C57.958,23.423 58.147,23.805 58.351,23.869 C58.554,23.933 59.391,23.871 59.391,23.871 C59.391,23.871 59.994,24.387 60.233,24.404 C60.472,24.42 61.189,24.278 61.189,24.278 C61.189,24.278 61.511,24.688 61.75,24.768 C61.988,24.848 62.846,24.869 62.846,24.869 C63.092,25.161 63.339,25.453 63.586,25.745 C59.923,25.166 56.185,24.935 52.451,24.852 C46.735,24.76 41.048,25.189 35.399,25.797 C36.367,24.117 37.764,22.603 39.239,21.157 C42.428,18.106 45.523,16.71 45.523,16.71 z" fill="#BAC9D6"/>
      </g>
      <path d="M104.214,79.2 C104.214,79.2 104.214,79.2 104.214,79.2" fill="#0080FF"/>
      <g>
        <path d="M69.276,26.07 C73.729,27.049 78.115,28.283 82.402,29.727 L82.402,29.727 L83.692,30.162 C93.629,33.586 97.978,36.394 105.17,37.981 C112.363,39.568 117.787,40.387 117.976,41.139 C118.165,41.891 116.721,42.189 112.84,42.691 C108.96,43.192 100.821,44.445 92.683,46.867 C84.544,49.289 83.03,51.544 64.859,55.052 C46.689,58.561 28.992,53.632 18.676,50.709 C8.36,47.786 -1.387,43.693 0.316,42.524 C2.02,41.354 7.225,41.939 7.225,41.939 C7.225,41.939 0.127,38.264 0.222,37.261 C0.316,36.259 12.146,30.663 20.379,27.906 C28.613,25.15 40.727,23.73 51.326,23.814 C57.408,23.816 63.383,24.846 69.276,26.07" fill="#111517"/>
        <path d="M64.175,35.721 C64.175,35.721 99.191,39.062 99.191,39.062 C103.029,39.089 106.867,39.116 110.705,39.142 C112.634,39.563 114.598,39.883 116.498,40.406 C116.974,40.537 117.84,40.72 118.14,41.156 C118.329,41.908 116.721,42.242 112.84,42.743 C108.96,43.244 100.821,44.497 92.683,46.919 C84.544,49.341 83.03,51.597 64.859,55.105 C46.689,58.613 28.992,53.685 18.676,50.761 C8.36,47.838 -1.387,43.745 0.316,42.576 C2.02,41.406 7.225,41.991 7.225,41.991 C5.315,40.93 3.301,39.96 1.572,38.669 C10.492,37.934 19.411,37.187 28.331,36.452 C28.331,36.452 64.175,35.721 64.175,35.721 z" fill="#DCE3EA"/>
        <path d="M60.97,31.805 C60.97,31.805 69.226,32.538 69.226,32.538 C69.226,32.538 72.54,32.852 72.54,32.852 C72.54,32.852 77.793,33.165 77.793,33.165 C77.793,33.165 81.358,34.209 81.358,34.209 C81.358,34.209 85.069,34.835 85.069,34.835 C85.069,34.835 86.737,34.679 86.737,34.679 C86.737,34.679 87.299,35.201 87.299,35.201 C87.299,35.201 89.238,35.462 89.238,35.462 C89.238,35.462 91.114,35.932 91.114,35.932 C91.114,35.932 92.865,36.558 92.865,36.558 C92.865,36.558 95.179,36.61 95.179,36.61 C95.179,36.61 96.868,37.341 96.868,37.341 C96.868,37.341 98.932,37.393 98.932,37.393 C98.932,37.393 101.183,38.02 101.183,38.02 C101.183,38.02 104.373,38.646 104.373,38.646 C104.373,38.646 106.937,38.803 106.937,38.803 C106.937,38.803 110.564,39.481 110.564,39.481 C110.564,39.481 113.129,40.003 113.129,40.003 C113.129,40.003 115.192,40.228 115.192,40.228 C115.192,40.228 113.12,40.003 113.12,40.003 C113.12,40.003 108.883,40.228 108.883,40.228 L103.605,40.228 C103.605,40.228 97.825,40.924 97.825,40.924 C97.825,40.924 91.039,40.228 91.039,40.228 C91.039,40.228 84.38,39.672 84.38,39.672 C84.38,39.672 77.656,38.941 77.656,38.941 C77.656,38.941 72.442,39.672 72.442,39.672 C72.442,39.672 67.667,38.419 67.667,38.419 C67.667,38.419 60.253,37.897 60.253,37.897 C60.253,37.897 56.358,38.21 56.358,38.21 C56.358,38.21 52.84,39.358 52.84,39.358 C52.84,39.358 48.442,38.627 48.442,38.627 C48.442,38.627 41.906,39.254 41.906,39.254 C41.906,39.254 35.625,39.515 35.625,39.515 C35.625,39.515 33.112,38.732 33.111,38.732 C33.112,38.732 30.975,39.202 30.975,39.202 C30.975,39.202 27.897,40.228 27.897,40.228 C27.897,40.228 24.881,38.993 24.881,38.993 C24.881,38.993 21.614,39.41 21.614,39.41 C21.614,39.41 17.781,40.455 17.781,40.455 C17.781,40.455 14.64,40.507 14.64,40.507 C14.64,40.507 11.31,39.985 11.31,39.985 C11.31,39.985 8.357,38.993 8.357,38.993 C8.357,38.993 5.404,39.149 5.404,39.149 C4.303,39.116 3.201,39.083 2.1,39.05 C1.371,38.552 0.527,38.131 0.186,37.338 C0.602,37.235 1.017,37.131 1.433,37.028 C1.433,37.028 4.81,36.767 4.81,36.767 C4.81,36.767 5.811,36.193 5.811,36.193 C5.811,36.193 9.063,36.088 9.063,36.088 C9.063,36.088 11.752,35.462 11.752,35.462 C11.752,35.462 13.065,34.783 13.065,34.783 C13.065,34.783 15.192,34.94 15.192,34.94 C15.192,34.94 18.293,34.261 18.293,34.261 C18.293,34.261 20.07,34.522 20.07,34.522 C20.07,34.522 22.008,33.791 22.008,33.791 C22.008,33.791 24.635,33.791 24.635,33.791 C24.635,33.791 26.386,33.113 26.386,33.113 C26.386,33.113 28.825,32.956 28.825,32.956 C28.825,32.956 31.264,32.956 31.264,32.956 C31.264,32.956 32.828,32.486 32.828,32.486 C32.828,32.486 36.08,32.591 36.08,32.591 C36.08,32.591 39.77,32.538 39.77,32.538 C39.77,32.538 42.959,31.805 42.959,31.805 L60.97,31.805 z" fill="url(#Gradient_1)"/>
        <path d="M6.746,41.751 C10.859,42.926 14.994,44.04 19.137,45.128 C27.655,47.356 30.651,47.913 39.169,49.166 C47.686,50.418 50.21,50.697 57.15,50.975 C64.09,51.254 69.735,50.418 76.376,50.001 C79.3,49.818 82.227,49.66 85.154,49.521 C78.65,52.145 71.692,53.686 64.738,55.052 C46.567,58.561 28.87,53.632 18.554,50.709 C8.239,47.786 -1.509,43.693 0.195,42.524 C1.898,41.354 7.103,41.939 7.103,41.939 C6.984,41.877 6.865,41.814 6.746,41.751 z" fill="#BAC9D6"/>
      </g>
      <g>
        <path d="M13.299,38.822 C11.819,38.822 10.619,37.717 10.619,36.353 C10.619,34.99 11.819,33.884 13.299,33.884 C14.78,33.884 15.98,34.99 15.98,36.353 C15.98,37.717 14.78,38.822 13.299,38.822 z" fill="#FCF3E8"/>
        <path d="M13.299,37.572 C12.569,37.572 11.977,37.026 11.977,36.353 C11.977,35.68 12.569,35.135 13.299,35.135 C14.03,35.135 14.622,35.68 14.622,36.353 C14.622,37.026 14.03,37.572 13.299,37.572 z" fill="#405058"/>
        <path d="M13.125,36.722 C12.722,36.722 12.394,36.406 12.394,36.017 C12.394,35.627 12.722,35.311 13.125,35.311 C13.529,35.311 13.857,35.627 13.857,36.017 C13.857,36.406 13.529,36.722 13.125,36.722 z" fill="#FDFDFD"/>
      </g>
      <path d="M34.848,40.104 C35.003,39.626 39.852,37.311 44.798,36.685 C49.743,36.059 51.696,36.068 53.82,36.355 C55.944,36.641 57.555,36.951 57.427,37.299 C51.315,39.23 49.936,40.758 48.916,41.648 C47.895,42.537 45.362,43.387 45.362,43.387 C45.362,43.387 42.682,44.158 40.67,43.603 C38.658,43.048 36.198,41.688 36.198,41.688 C36.198,41.688 34.692,40.583 34.848,40.104 z" fill="#111517"/>
      <path d="M17.347,50.044 C17.347,50.044 24.279,50.657 29.089,46.616 C33.899,42.576 28.433,32.232 28.433,32.232 C28.433,32.232 35.102,40.717 30.838,46.697 C26.575,52.677 20.992,50.864 20.992,50.864 C20.992,50.864 17.347,50.044 17.347,50.044 z" fill="#6B7F90"/>
    </g>
    <path d="M47.316,45.8 C47.895,45.457 47.599,47.773 56.93,47.174 C66.262,46.575 59.513,44.512 71.614,44.855 C75.815,44.975 78.207,45.652 82.586,44.137 C86.965,42.623 99.917,41.463 100.122,41.764 C100.436,42.226 91.334,43.344 86.708,44.128 C82.082,44.911 86.308,45.628 74.19,45.886 C62.072,46.144 63.458,48.231 56.587,48.548 C49.715,48.865 46.737,46.144 47.316,45.8 z" fill="#111517"/>
    <path d="M45.544,50.651 C45.749,49.836 48.667,52.338 57.951,51.538 C67.235,50.738 65.668,46.543 73.44,47.588 C81.212,48.634 82.339,46.11 86.45,45.285 C94.186,43.731 99.911,42.411 100.121,42.709 C100.444,43.166 94.035,44.376 87.91,46.058 C81.785,47.739 82.716,49.31 75.18,48.843 C67.645,48.376 64.986,52.189 58.147,52.653 C51.308,53.118 45.34,51.465 45.544,50.651 z" fill="#111517"/>
    <path d="M49.149,42.684 C48.964,43.052 52.917,44.426 54.635,44.083 C56.352,43.739 57.726,43.31 60.044,42.537 C62.363,41.764 68.202,42.059 70.949,42.083 C73.697,42.108 79.107,41.801 80.91,42.083 C82.713,42.365 84.58,42.203 86.726,41.726 C88.873,41.249 98.214,41.764 98.233,41.335 C98.252,40.906 91.192,40.476 88.959,40.562 C86.726,40.648 85.032,40.915 82.456,41.125 C79.88,41.335 78.678,40.734 75.243,40.562 C71.808,40.39 71.207,41.43 66.828,41.125 C62.449,40.82 62.706,40.4 60.13,41.125 C57.554,41.85 57.726,42.537 55.665,43.052 C53.604,43.567 49.334,42.317 49.149,42.684 z" fill="#111517"/>
  </g>
</svg>
