<?xml version="1.0" encoding="UTF-8"?>
<!DOCTYPE svg PUBLIC "-//W3C//DTD SVG 1.1//EN" "http://www.w3.org/Graphics/SVG/1.1/DTD/svg11.dtd">
<svg version="1.1" xmlns="http://www.w3.org/2000/svg" xmlns:xlink="http://www.w3.org/1999/xlink" x="0" y="0" width="288" height="158.4" viewBox="0, 0, 144, 79.2">
  <g id="Layer_2">
    <g>
      <path d="M31.864,55.566 C31.864,55.566 34.155,59.374 35.583,60.861 C37.01,62.349 38.766,63.955 40.223,64.55 C41.681,65.145 42.544,64.788 42.663,64.491 C42.782,64.193 42.306,63.747 41.651,62.438 C40.997,61.129 41.651,59.731 40.55,58.66 C39.45,57.589 37.219,56.875 37.219,56.875 C37.219,56.875 35.969,55.715 34.72,55.447 C33.47,55.179 31.775,55.626 31.864,55.566 z" fill="#FEBC11"/>
      <path d="M113.261,39.66 C113.261,39.66 114.866,40.082 117.341,38.392 C119.816,36.702 123.624,31.847 126.099,28.611 C128.574,25.374 132.001,22.042 135.333,19.948 C138.665,17.854 142.472,17.854 142.568,18.615 C142.663,19.377 139.617,19.128 133.715,27.915 C127.813,36.702 127.051,41.367 127.051,41.367 C127.051,41.367 130.288,49.363 134.762,56.788 C139.236,64.213 143.805,65.26 143.996,66.402 C144.186,67.545 138.284,68.782 132.668,63.166 C127.051,57.549 124.481,53.456 122.006,49.268 C119.531,45.079 116.675,43.415 116.675,43.415 C116.675,43.415 113.261,42.604 113.261,42.604 C113.261,42.604 111.535,41.081 111.535,41.081 C111.535,41.081 113.261,39.66 113.261,39.66 z" fill="#FEBC11"/>
      <g>
        <path d="M80.821,52.315 C80.821,52.315 81.725,52.881 82.546,53.029 C83.376,53.179 84.242,53.356 84.45,53.148 C84.658,52.94 84.369,52.56 84.39,51.958 C84.413,51.326 84.539,50.679 84.539,50.679 C84.539,50.679 82.367,51.185 82.367,51.185 C82.367,51.185 80.761,52.404 80.821,52.315 z" fill="#FEBC11"/>
        <path d="M84.541,51.006 C84.541,51.006 85.428,51.599 86.244,51.771 C87.07,51.946 87.929,52.149 88.144,51.947 C88.358,51.745 88.08,51.357 88.12,50.756 C88.161,50.125 88.306,49.482 88.306,49.482 C88.306,49.482 86.121,49.923 86.121,49.923 C86.121,49.923 84.479,51.094 84.541,51.006 z" fill="#FEBC11"/>
        <path d="M88.308,49.407 C88.308,49.407 89.213,49.973 90.033,50.121 C90.864,50.271 91.729,50.448 91.937,50.24 C92.145,50.032 91.856,49.652 91.878,49.05 C91.901,48.419 92.026,47.771 92.026,47.771 C92.026,47.771 89.855,48.277 89.855,48.277 C89.855,48.277 88.248,49.496 88.308,49.407 z" fill="#FEBC11"/>
        <path d="M91.731,48.173 C91.731,48.173 92.626,48.754 93.444,48.916 C94.272,49.079 95.134,49.271 95.346,49.066 C95.557,48.862 95.274,48.477 95.306,47.876 C95.339,47.244 95.476,46.599 95.476,46.599 C95.476,46.599 93.296,47.069 93.296,47.069 C93.296,47.069 91.67,48.261 91.731,48.173 z" fill="#FEBC11"/>
        <path d="M95.076,46.936 C95.076,46.936 96.017,47.476 96.861,47.6 C97.714,47.726 98.604,47.878 98.812,47.664 C99.019,47.45 98.712,47.079 98.717,46.476 C98.723,45.844 98.833,45.193 98.833,45.193 C98.833,45.193 96.626,45.762 96.626,45.762 C96.626,45.762 95.018,47.027 95.076,46.936 z" fill="#FEBC11"/>
        <path d="M98.28,45.765 C98.28,45.765 99.153,46.378 99.965,46.569 C100.786,46.763 101.641,46.986 101.86,46.789 C102.078,46.592 101.81,46.198 101.863,45.598 C101.92,44.968 102.08,44.328 102.08,44.328 C102.08,44.328 99.884,44.718 99.884,44.718 C99.884,44.718 98.215,45.851 98.28,45.765 z" fill="#FEBC11"/>
        <path d="M101.498,44.431 C101.498,44.431 102.361,45.152 103.228,45.446 C104.105,45.745 105.014,46.077 105.291,45.911 C105.567,45.744 105.337,45.32 105.499,44.733 C105.67,44.118 105.957,43.506 105.957,43.506 C105.957,43.506 103.457,43.606 103.457,43.606 C103.457,43.606 101.412,44.508 101.498,44.431 z" fill="#FEBC11"/>
        <path d="M105.937,43.589 C105.937,43.589 106.609,44.384 107.369,44.748 C108.139,45.116 108.932,45.521 109.226,45.373 C109.52,45.225 109.387,44.777 109.658,44.194 C109.941,43.583 110.334,42.984 110.334,42.984 C110.334,42.984 107.952,42.898 107.952,42.898 C107.952,42.898 105.84,43.661 105.937,43.589 z" fill="#FEBC11"/>
      </g>
      <path d="M107.513,74.922 C107.632,75.16 95.971,74.267 88.236,68.02 C80.502,61.773 78.062,58.084 78.419,56.24 C78.823,54.686 79.736,53.309 80.621,51.988 C76.294,53.583 64.112,52.931 67.417,56.156 C73.601,62.19 76.694,65.224 86.57,71.352 C96.185,77.317 107.394,74.684 107.513,74.922 z" fill="#FEBC11"/>
      <g>
        <path d="M112.666,1.535 C112.666,1.535 97.673,3.022 86.488,14.445 C80.301,20.871 80.36,22.239 80.717,24.084 C81.121,25.638 83.536,28.52 83.655,28.639 C83.774,28.758 79.252,28.222 74.79,26.675 C70.328,25.128 69.079,23.998 69.019,24.236 C68.96,24.474 73.541,17.066 84.904,9.034 C96.268,1.003 112.666,1.535 112.666,1.535 z" fill="#FEBC11"/>
      </g>
      <g>
        <path d="M83.446,28.843 C83.446,28.843 84.35,28.277 85.171,28.129 C86.001,27.979 86.867,27.802 87.075,28.01 C87.283,28.218 86.994,28.598 87.015,29.2 C87.038,29.831 87.164,30.479 87.164,30.479 C87.164,30.479 84.992,29.973 84.992,29.973 C84.992,29.973 83.386,28.754 83.446,28.843 z" fill="#FEBC11"/>
        <path d="M87.166,30.33 C87.166,30.33 88.071,29.764 88.891,29.616 C89.721,29.467 90.587,29.289 90.795,29.497 C91.003,29.705 90.714,30.085 90.735,30.687 C90.758,31.319 90.884,31.966 90.884,31.966 C90.884,31.966 88.713,31.461 88.713,31.461 C88.713,31.461 87.106,30.241 87.166,30.33 z" fill="#FEBC11"/>
        <path d="M90.886,31.996 C90.886,31.996 91.791,31.43 92.611,31.282 C93.442,31.132 94.307,30.955 94.515,31.163 C94.723,31.371 94.434,31.751 94.455,32.353 C94.478,32.985 94.604,33.632 94.604,33.632 C94.604,33.632 92.433,33.126 92.433,33.126 C92.433,33.126 90.826,31.907 90.886,31.996 z" fill="#FEBC11"/>
        <path d="M94.606,33.662 C94.606,33.662 95.511,33.096 96.331,32.948 C97.162,32.798 98.027,32.621 98.235,32.829 C98.443,33.037 98.154,33.417 98.176,34.019 C98.198,34.651 98.324,35.298 98.324,35.298 C98.324,35.298 96.153,34.792 96.153,34.792 C96.153,34.792 94.546,33.573 94.606,33.662 z" fill="#FEBC11"/>
        <path d="M98.326,35.473 C98.326,35.473 99.225,34.865 100.057,34.679 C100.899,34.49 101.775,34.273 101.998,34.471 C102.22,34.669 101.942,35.062 101.991,35.662 C102.044,36.292 102.202,36.933 102.202,36.933 C102.202,36.933 99.959,36.529 99.959,36.529 C99.959,36.529 98.261,35.386 98.326,35.473 z" fill="#FEBC11"/>
        <path d="M102.204,36.696 C102.204,36.696 103.077,36.083 103.889,35.892 C104.71,35.698 105.565,35.475 105.784,35.672 C106.003,35.869 105.734,36.263 105.787,36.863 C105.844,37.493 106.004,38.133 106.004,38.133 C106.004,38.133 103.808,37.743 103.808,37.743 C103.808,37.743 102.14,36.61 102.204,36.696 z" fill="#FEBC11"/>
        <path d="M106.006,37.807 C106.006,37.807 106.73,37.104 107.451,36.827 C108.18,36.546 108.936,36.232 109.162,36.403 C109.387,36.575 109.19,36.995 109.315,37.584 C109.446,38.203 109.673,38.82 109.673,38.82 C109.673,38.82 107.61,38.672 107.61,38.672 C107.61,38.672 105.936,37.729 106.006,37.807 z" fill="#FEBC11"/>
        <path d="M109.676,39.225 C109.676,39.225 110.196,38.405 110.801,38.012 C111.414,37.614 112.044,37.179 112.288,37.316 C112.531,37.452 112.437,37.905 112.674,38.477 C112.924,39.077 113.261,39.66 113.261,39.66 C113.261,39.66 111.332,39.838 111.332,39.838 C111.332,39.838 109.595,39.157 109.676,39.225 z" fill="#FEBC11"/>
      </g>
      <path d="M44.209,10.072 C44.209,10.072 44.433,11.262 44.596,11.5 C44.76,11.738 45.756,11.976 45.756,11.976 C45.756,11.976 45.623,12.623 45.756,12.809 C45.89,12.995 46.5,13.136 46.5,13.136 C46.5,13.136 46.426,13.917 46.53,14.088 C46.634,14.259 47.303,14.385 47.303,14.385 C47.303,14.385 47.192,15.263 47.393,15.486 C47.593,15.709 48.196,15.903 48.196,15.903 C48.196,15.903 48.166,16.75 48.315,16.944 C48.463,17.137 49.058,17.36 49.058,17.36 C49.058,17.36 49.17,18.171 49.267,18.312 C49.363,18.453 49.586,18.624 49.713,18.639 C49.839,18.654 50.546,18.55 50.546,18.55 C50.546,18.55 50.947,19.182 51.17,19.205 C51.394,19.227 52.182,18.729 52.182,18.729 C52.182,18.729 52.702,19.383 52.896,19.353 C53.089,19.324 53.878,18.907 53.878,18.907 C53.878,18.907 54.472,19.71 54.71,19.74 C54.948,19.77 55.514,19.205 55.514,19.205 C55.514,19.205 55.856,19.688 56.079,19.74 C56.302,19.792 57.388,19.442 57.388,19.442 C57.388,19.442 57.589,19.978 57.804,20.067 C58.02,20.156 58.905,20.067 58.905,20.067 C58.905,20.067 59.544,20.789 59.797,20.811 C60.05,20.833 60.809,20.632 60.809,20.632 C60.809,20.632 61.151,21.205 61.404,21.317 C61.657,21.428 62.564,21.455 62.564,21.455 C62.826,21.864 63.088,22.272 63.35,22.681 C59.472,21.879 55.515,21.565 51.563,21.459 C45.513,21.346 39.495,21.962 33.518,22.829 C34.538,20.473 36.013,18.348 37.57,16.319 C40.937,12.035 44.209,10.072 44.209,10.072 z" fill="#FEBC11"/>
    </g>
    <path d="M100.522,81.673 C100.522,81.673 100.522,81.673 100.522,81.673" fill="#0080FF"/>
    <g>
      <path d="M69.682,23.894 C74.161,25.009 78.573,26.415 82.886,28.061 L82.886,28.061 L84.183,28.556 C94.178,32.459 98.553,35.659 105.787,37.467 C113.022,39.276 118.478,40.21 118.668,41.067 C118.859,41.924 117.406,42.264 113.503,42.835 C109.6,43.406 101.413,44.834 93.226,47.595 C85.04,50.355 83.517,52.926 65.24,56.924 C46.963,60.922 29.162,55.305 18.786,51.974 C8.41,48.642 -1.395,43.977 0.318,42.645 C2.032,41.312 7.267,41.978 7.267,41.978 C7.267,41.978 0.128,37.79 0.223,36.648 C0.318,35.505 12.217,29.127 20.499,25.986 C28.781,22.845 40.966,21.226 51.627,21.322 C57.745,21.325 63.755,22.499 69.682,23.894" fill="#1F2532"/>
      <path d="M64.551,34.893 C64.551,34.893 99.773,38.7 99.773,38.7 C103.633,38.73 107.494,38.761 111.355,38.791 C113.295,39.271 115.27,39.636 117.181,40.232 C117.66,40.381 118.532,40.589 118.833,41.086 C119.024,41.943 117.406,42.323 113.503,42.895 C109.6,43.466 101.413,44.894 93.226,47.654 C85.04,50.415 83.517,52.985 65.24,56.983 C46.963,60.981 29.162,55.365 18.786,52.033 C8.41,48.701 -1.395,44.037 0.318,42.704 C2.032,41.372 7.267,42.038 7.267,42.038 C5.346,40.829 3.321,39.724 1.581,38.252 C10.554,37.414 19.525,36.563 28.497,35.726 C28.497,35.726 64.551,34.893 64.551,34.893 z" fill="#DCE3EA"/>
      <path d="M61.328,30.429 C61.328,30.429 69.632,31.265 69.632,31.265 C69.632,31.265 72.965,31.622 72.965,31.622 C72.965,31.622 78.25,31.979 78.25,31.979 C78.25,31.979 81.836,33.169 81.836,33.169 C81.836,33.169 85.568,33.883 85.568,33.883 C85.568,33.883 87.246,33.704 87.246,33.704 C87.246,33.704 87.812,34.299 87.812,34.299 C87.812,34.299 89.762,34.597 89.762,34.597 C89.762,34.597 91.649,35.132 91.649,35.132 C91.649,35.132 93.41,35.846 93.41,35.846 C93.41,35.846 95.738,35.906 95.738,35.906 C95.738,35.906 97.436,36.738 97.436,36.738 C97.436,36.738 99.512,36.798 99.512,36.798 C99.512,36.798 101.777,37.512 101.777,37.512 C101.777,37.512 104.985,38.226 104.985,38.226 C104.985,38.226 107.564,38.404 107.564,38.404 C107.564,38.404 111.213,39.178 111.213,39.178 C111.213,39.178 113.793,39.773 113.793,39.773 C113.793,39.773 115.868,40.029 115.868,40.029 C115.868,40.029 113.783,39.773 113.783,39.773 C113.783,39.773 109.522,40.029 109.522,40.029 L104.213,40.029 C104.213,40.029 98.399,40.822 98.399,40.822 C98.399,40.822 91.574,40.029 91.574,40.029 C91.574,40.029 84.875,39.394 84.875,39.394 C84.875,39.394 78.112,38.561 78.112,38.561 C78.112,38.561 72.867,39.394 72.867,39.394 C72.867,39.394 68.064,37.966 68.064,37.966 C68.064,37.966 60.607,37.372 60.607,37.372 C60.607,37.372 56.689,37.729 56.689,37.729 C56.689,37.729 53.15,39.037 53.15,39.037 C53.15,39.037 48.726,38.204 48.726,38.204 C48.726,38.204 42.152,38.918 42.152,38.918 C42.152,38.918 35.834,39.216 35.834,39.216 C35.834,39.216 33.306,38.323 33.306,38.323 C33.306,38.323 31.157,38.859 31.157,38.859 C31.157,38.859 28.06,40.029 28.06,40.029 C28.06,40.029 25.027,38.621 25.027,38.621 C25.027,38.621 21.741,39.097 21.741,39.097 C21.741,39.097 17.886,40.287 17.886,40.287 C17.886,40.287 14.726,40.346 14.726,40.346 C14.726,40.346 11.376,39.751 11.376,39.751 C11.376,39.751 8.406,38.621 8.406,38.621 C8.406,38.621 5.436,38.799 5.436,38.799 C4.328,38.762 3.22,38.723 2.112,38.686 C1.379,38.119 0.53,37.639 0.188,36.735 C0.605,36.617 1.023,36.499 1.441,36.381 C1.441,36.381 4.838,36.084 4.838,36.084 C4.838,36.084 5.845,35.43 5.845,35.43 C5.845,35.43 9.116,35.311 9.116,35.311 C9.116,35.311 11.821,34.597 11.821,34.597 C11.821,34.597 13.142,33.823 13.142,33.823 C13.142,33.823 15.281,34.002 15.281,34.002 C15.281,34.002 18.401,33.228 18.401,33.228 C18.401,33.228 20.187,33.526 20.187,33.526 C20.187,33.526 22.137,32.693 22.137,32.693 C22.137,32.693 24.78,32.693 24.78,32.693 C24.78,32.693 26.541,31.919 26.541,31.919 C26.541,31.919 28.994,31.741 28.994,31.741 C28.994,31.741 31.448,31.741 31.448,31.741 C31.448,31.741 33.02,31.205 33.02,31.205 C33.02,31.205 36.291,31.324 36.291,31.324 C36.291,31.324 40.003,31.265 40.003,31.265 C40.003,31.265 43.211,30.429 43.211,30.429 L61.328,30.429 z" fill="#FEBC11"/>
      <path d="M59.731,28.667 C59.731,28.667 62.122,29.07 62.122,29.07 C62.122,29.07 63.82,29.5 63.82,29.5 C63.82,29.5 66.148,29.619 66.148,29.619 C66.148,29.619 67.909,29.559 67.909,29.559 C67.909,29.559 69.985,29.619 69.985,29.619 L70.843,29.619 C70.843,29.619 72.25,30.095 72.25,30.095 C72.25,30.095 73.948,30.448 73.948,30.448 L76.15,30.448 C76.15,30.448 77.534,31.166 77.534,31.166 C77.534,31.166 79.169,31.166 79.169,31.166 C79.169,31.166 80.931,31.523 80.931,31.523 C80.931,31.523 82.378,31.582 82.378,31.582 C82.378,31.582 83.321,32.237 83.321,32.237 C83.321,32.237 84.705,32.237 84.705,32.237 C84.705,32.237 86.152,32.475 86.152,32.475 C86.152,32.475 86.467,33.01 86.467,33.01 C86.467,33.01 88.102,33.189 88.102,33.189 C88.102,33.189 88.668,33.546 88.668,33.545 C88.668,33.546 89.864,33.902 89.864,33.902 C89.864,33.902 90.744,34.378 90.744,34.378 C90.744,34.378 91.877,34.616 91.877,34.616 C91.877,34.616 92.757,34.616 92.757,34.616 C92.757,34.616 93.827,35.449 93.827,35.449 C93.827,35.449 95.462,35.39 95.462,35.39 C95.462,35.39 96.846,35.687 96.846,35.687 C96.846,35.687 97.79,36.163 97.79,36.163 C97.79,36.163 99.362,36.104 99.362,36.104 C99.362,36.104 100.054,36.044 100.054,36.044 C100.054,36.044 101.753,36.877 101.753,36.877 C101.753,36.877 103.011,36.996 103.011,36.996 C103.011,36.996 103.64,37.234 103.64,37.234 C103.64,37.234 104.772,37.651 104.772,37.651 C104.772,37.651 106.408,37.948 106.408,37.948 L107.786,37.948 C110.768,38.66 109.697,38.406 111,38.714 C111.419,38.875 111.839,39.037 112.258,39.198 C112.258,39.198 115.907,40.049 115.907,40.049 C115.907,40.049 113.832,39.793 113.832,39.793 C113.832,39.793 111.252,39.198 111.252,39.198 C111.252,39.198 107.603,38.424 107.603,38.424 C107.603,38.424 105.024,38.246 105.024,38.246 C105.024,38.246 101.816,37.532 101.816,37.532 C101.816,37.532 99.551,36.818 99.551,36.818 C99.551,36.818 97.475,36.758 97.475,36.758 C97.475,36.758 95.777,35.925 95.777,35.925 C95.777,35.925 93.449,35.866 93.449,35.866 C93.449,35.866 91.688,35.152 91.688,35.152 C91.688,35.152 89.801,34.616 89.801,34.616 C89.801,34.616 87.851,34.319 87.85,34.319 C87.851,34.319 87.284,33.724 87.284,33.724 C87.284,33.724 85.607,33.903 85.607,33.902 C85.607,33.903 81.874,33.189 81.874,33.189 C81.874,33.189 78.289,31.999 78.289,31.999 C78.289,31.999 73.004,31.642 73.004,31.642 C73.004,31.642 69.671,31.285 69.671,31.285 C69.671,31.285 61.367,30.448 61.367,30.448 L43.25,30.448 C43.25,30.448 40.042,31.285 40.042,31.285 C40.042,31.285 36.33,31.344 36.33,31.344 C36.33,31.344 33.059,31.225 33.059,31.225 C33.059,31.225 31.486,31.761 31.486,31.761 L29.033,31.761 C29.033,31.761 26.58,31.939 26.58,31.939 C26.58,31.939 24.818,32.713 24.818,32.713 L22.176,32.713 C22.176,32.713 20.226,33.546 20.226,33.546 C20.226,33.546 18.44,33.248 18.44,33.248 C18.44,33.248 15.319,34.021 15.319,34.021 C15.319,34.021 13.181,33.843 13.181,33.843 C13.181,33.843 11.86,34.616 11.86,34.616 C11.86,34.616 9.155,35.33 9.155,35.33 C9.155,35.33 5.884,35.449 5.883,35.449 C5.884,35.449 4.877,36.104 4.877,36.104 C4.877,36.104 1.48,36.401 1.48,36.401 C1.062,36.519 0.644,36.637 0.226,36.755 L0.208,36.707 L0.239,36.661 C1.093,36.376 1.947,36.091 2.801,35.806 C2.801,35.806 4.562,35.687 4.562,35.687 C4.562,35.687 6.009,35.033 6.009,35.033 C6.009,35.033 7.834,34.973 7.834,34.973 C7.834,34.973 9.847,34.616 9.847,34.616 C9.847,34.616 10.853,34.14 10.853,34.14 C10.853,34.14 11.923,33.902 11.923,33.902 C11.923,33.902 13.596,33.308 13.596,33.308 C13.596,33.308 15.257,32.951 15.257,32.951 C15.257,32.951 16.452,32.832 16.452,32.832 C16.452,32.832 18.15,32.415 18.15,32.415 C18.15,32.415 20.667,31.761 20.666,31.761 C20.667,31.761 22.994,31.285 22.994,31.285 L25.07,31.285 C25.07,31.285 26.139,30.749 26.139,30.749 C26.139,30.749 27.964,30.448 27.964,30.448 L30.354,30.448 C30.354,30.448 33.248,30.035 33.248,30.035 C33.248,30.035 36.016,29.857 36.016,29.857 C36.016,29.857 37.777,29.678 37.777,29.678 C37.777,29.678 39.79,29.738 39.79,29.738 C39.79,29.738 41.111,29.321 41.111,29.321 L44.76,29.321 C44.76,29.321 46.269,29.07 46.269,29.07 L56.272,29.07 C56.272,29.07 58.222,28.667 58.222,28.667 L59.731,28.667 z" fill="#0080FF"/>
      <path d="M6.786,41.764 C10.923,43.103 15.082,44.373 19.249,45.614 C27.817,48.152 30.831,48.787 39.399,50.215 C47.966,51.642 50.504,51.96 57.485,52.277 C64.466,52.594 70.144,51.642 76.824,51.167 C79.766,50.959 82.709,50.778 85.654,50.619 C79.112,53.611 72.113,55.366 65.118,56.924 C46.84,60.922 29.039,55.305 18.663,51.974 C8.287,48.642 -1.518,43.977 0.196,42.645 C1.909,41.312 7.145,41.978 7.145,41.978 C7.025,41.908 6.905,41.836 6.786,41.764 z" fill="#BAC9D6"/>
    </g>
    <g>
      <g>
        <path d="M16.062,38.499 C14.797,38.499 13.771,37.473 13.771,36.208 C13.771,34.943 14.797,33.918 16.062,33.918 C17.327,33.918 18.353,34.943 18.353,36.208 C18.353,37.473 17.327,38.499 16.062,38.499 z" fill="#FCF3E8"/>
        <path d="M16.062,37.339 C15.438,37.339 14.932,36.832 14.932,36.208 C14.932,35.584 15.438,35.078 16.062,35.078 C16.686,35.078 17.192,35.584 17.192,36.208 C17.192,36.832 16.686,37.339 16.062,37.339 z" fill="#405058"/>
        <path d="M15.913,36.55 C15.568,36.55 15.289,36.257 15.289,35.896 C15.289,35.534 15.568,35.241 15.913,35.241 C16.258,35.241 16.538,35.534 16.538,35.896 C16.538,36.257 16.258,36.55 15.913,36.55 z" fill="#FDFDFD"/>
      </g>
      <path d="M35.785,37.895 C35.931,37.175 41.071,33.299 46.393,31.901 C51.714,30.504 58.72,31.046 61.031,31.264 C63.342,31.482 66.321,32.62 66.198,33.144 C66.075,33.669 62.113,32.233 59.424,33.169 C56.735,34.104 51.075,38.816 51.075,38.816 C51.075,38.816 47.31,41.719 47.31,41.719 C47.31,41.719 44.446,43.113 42.244,42.488 C40.042,41.864 37.318,40.098 37.318,40.098 C37.318,40.098 35.638,38.615 35.785,37.895 z" fill="#B28929"/>
      <path d="M18.897,52.08 C18.897,52.08 24.933,52.801 29.121,48.042 C33.31,43.282 28.55,31.097 28.55,31.097 C28.55,31.097 34.357,41.093 30.644,48.137 C26.932,55.181 22.071,53.045 22.071,53.045 C22.071,53.045 18.897,52.08 18.897,52.08 z" fill="#95A5B3"/>
    </g>
  </g>
</svg>
